<svg xmlns="http://www.w3.org/2000/svg" viewBox="0 0 47.18 42.29"><defs><style>.cls-1{fill:#fff;}</style></defs><title>Asset 1</title><g id="Layer_2" data-name="Layer 2"><g id="Law_and_Order_Icons" data-name="Law and Order Icons"><path class="cls-1" d="M47.09,40.74l-1.79-4.46a1.13,1.13,0,0,0-1-.71h-.91V33.24a1.13,1.13,0,0,0-1.13-1.13h-14a1.13,1.13,0,0,0-1.13,1.13v2.33h-.91a1.13,1.13,0,0,0-1,.71l-1.78,4.46a1.13,1.13,0,0,0,1,1.55H46a1.13,1.13,0,0,0,1-1.55ZM26.1,40l.88-2.2h1.27a1.13,1.13,0,0,0,1.13-1.13V34.37H41.09V36.7a1.13,1.13,0,0,0,1.13,1.13H43.5l.88,2.2ZM6.74,37.24a2.55,2.55,0,1,1-3.84-3.36,2.53,2.53,0,0,1,.24-.24L17,21.57,15.42,20l-13.77,12a4.81,4.81,0,1,0,6.79,6.79L20.42,25l-1.6-1.6ZM25.3,24.59l.57.75c1.47,2,2.52,3.31,2.52,3.31a3.21,3.21,0,0,0,2.23.87,3.08,3.08,0,0,0,1.08-.19l.15-.07A21,21,0,0,0,40.13,21l.07-.15a3.27,3.27,0,0,0-.68-3.31l-4.07-3.08a2.4,2.4,0,0,0-.62-2.29L28.23,5.56a2.34,2.34,0,0,0-2.29-.62L22.87.87A3.32,3.32,0,0,0,19.55.18L19.4.25a21,21,0,0,0-8.29,8.29L11,8.68A3.26,3.26,0,0,0,11.73,12l4.07,3.08a2.4,2.4,0,0,0,.62,2.29L23,24a2.34,2.34,0,0,0,2.29.62Zm12.65-5.44a1.06,1.06,0,0,1,.16.83,18.76,18.76,0,0,1-7.26,7.26,1.13,1.13,0,0,1-.83-.16l-.5-.67,7.77-7.77Zm-2.7-2,.21.16-7.32,7.32L27.67,24l-.55-.73,7-7ZM13.3,10.37a1.05,1.05,0,0,1-.16-.83A18.73,18.73,0,0,1,20.4,2.28a1.11,1.11,0,0,1,.83.16l.5.67L14,10.87Zm2.53,1.91,0,0,7.32-7.32.47.62.54.72-7,7ZM18,15.77a.14.14,0,0,1,0-.2l8.4-8.4,0,0a.14.14,0,0,1,.1,0,.14.14,0,0,1,.1,0l6.59,6.59a.14.14,0,0,1,0,.2l-8.41,8.41a.14.14,0,0,1-.2,0Z"/></g></g></svg>