<svg xmlns="http://www.w3.org/2000/svg" viewBox="0 0 46.5 42.78"><defs><style>.cls-1{fill:#fff;}</style></defs><title>Asset 1</title><g id="Layer_2" data-name="Layer 2"><g id="Law_and_Order_Icons" data-name="Law and Order Icons"><path class="cls-1" d="M46.36,25.63,40.2,13.31a3,3,0,0,0-2.69-2.1c-4.22-.28-10.66-.71-11.08-.76a1.13,1.13,0,0,0-.93.23l-2.26,1.81L21,10.68a1,1,0,0,0-.87-.24c-.47.06-6.91.49-11.12.76a3,3,0,0,0-2.7,2.1L.14,25.63a1.11,1.11,0,0,0-.14.54c0,3.68,2.79,6,7.28,6s7.28-2.28,7.28-6a1.13,1.13,0,0,0-.19-.63L9.95,17.27l6.46.34c1.67,19,1.9,21.6,1.94,22h0a3.51,3.51,0,0,0,3.49,3.18,3.47,3.47,0,0,0,1.41-.3,3.47,3.47,0,0,0,1.41.3,3.51,3.51,0,0,0,3.49-3.18h0c0-.41.27-3,1.94-22l6.46-.34-4.42,8.26a1.12,1.12,0,0,0-.19.63c0,3.68,2.79,6,7.28,6s7.28-2.28,7.28-6A1.1,1.1,0,0,0,46.36,25.63ZM7.28,29.87c-1.63,0-4.22-.36-4.87-2.57h9.74C11.5,29.51,8.91,29.87,7.28,29.87ZM11.54,25H3l4.13-8.32ZM29,15.4a1.13,1.13,0,0,0-1.07,1c-1.25,14.24-2,22.58-2,22.93h0a1.25,1.25,0,0,1-1.25,1.14,1.24,1.24,0,0,1-.74-.25,1.13,1.13,0,0,0-1.33,0,1.24,1.24,0,0,1-2-.89h0c0-.48-1.47-16.7-2-22.94a1.13,1.13,0,0,0-1.07-1L9.13,15a.75.75,0,0,1,0-1.5c5.84-.38,9.46-.63,10.8-.74l2.61,2.1a1.13,1.13,0,0,0,1.42,0l2.61-2.1c1.34.11,5,.36,10.81.74a.75.75,0,0,1,.71.79.76.76,0,0,1-.71.71Zm10.42,1.32L43.54,25H35Zm-.19,13.15c-1.63,0-4.22-.36-4.87-2.57h9.74C43.44,29.51,40.85,29.87,39.22,29.87ZM22.51,9.42h.06c.18,0,.51.06.69.06s.5,0,.68-.06H24A4.26,4.26,0,0,0,27.33,6c.6-2.52.08-4.42-1.47-5.37a6,6,0,0,0-5.21,0c-1.55.95-2.08,2.86-1.47,5.37A4.26,4.26,0,0,0,22.51,9.42Zm-.68-6.9a3.39,3.39,0,0,1,1.43-.26,3.41,3.41,0,0,1,1.43.26c.91.55.62,2.22.45,2.92C25,5.9,24.65,7,23.64,7.19l-.39,0-.39,0c-1-.18-1.37-1.28-1.49-1.75C21.21,4.74,20.92,3.07,21.83,2.52Z"/></g></g></svg>