<svg xmlns="http://www.w3.org/2000/svg" viewBox="0 0 53.98 42.3"><defs><style>.cls-1{fill:#fff;}</style></defs><title>Asset 1</title><g id="Layer_2" data-name="Layer 2"><g id="Law_and_Order_Icons" data-name="Law and Order Icons"><path class="cls-1" d="M10.77,13.49H43.22a1.13,1.13,0,0,0,1.13-1.13V9a1.13,1.13,0,0,0-.64-1L27.48.11a1.13,1.13,0,0,0-1,0L10.28,8a1.13,1.13,0,0,0-.64,1v3.37A1.13,1.13,0,0,0,10.77,13.49ZM11.9,9.7,27,2.39,42.09,9.7v1.53H11.9Zm41,15.65A1.13,1.13,0,0,0,54,24.22V20a1.13,1.13,0,0,0-1.13-1.13H45.5v2.26h6.22v2H45.5v2.26h2.92V40H42.68V16.31H40.42V40h-5V16.31H33.14V40h-5V16.31H25.86V40h-5V16.31H18.58V40h-5V16.31H11.31V40H5.56V25.35H8.48V23.09H2.26v-2H8.48V18.86H1.13A1.13,1.13,0,0,0,0,20v4.23a1.13,1.13,0,0,0,1.13,1.13H3.3V40H0V42.3H53.95V40H50.69V25.35Z"/></g></g></svg>