<svg xmlns="http://www.w3.org/2000/svg" viewBox="0 0 41.44 42.78"><defs><style>.cls-1{fill:#fff;}</style></defs><title>Asset 1</title><g id="Layer_2" data-name="Layer 2"><g id="Law_and_Order_Icons" data-name="Law and Order Icons"><path class="cls-1" d="M41.43,15.52a3.87,3.87,0,0,0-1.08-2.91A6.09,6.09,0,0,0,37,11a1.14,1.14,0,0,0-.93.23l-2,1.62-2-1.62a1.13,1.13,0,0,0-.93-.23,9,9,0,0,0-1.07.28l1,2.08,2.26,1.82a1.13,1.13,0,0,0,1.42,0l2.3-1.85a3.51,3.51,0,0,1,1.62.85,1.6,1.6,0,0,1,.45,1.26s0,0,0,.06V25A1.07,1.07,0,0,1,38.3,26a1.13,1.13,0,0,0-.91,1c-.25,2.86-.91,10.3-.95,10.64v0a1.07,1.07,0,0,1-1.06,1,1,1,0,0,1-.62-.21,1.13,1.13,0,0,0-1.34,0,1,1,0,0,1-.62.21,1.07,1.07,0,0,1-1.06-1v0c0-.19-.21-2.38-.43-4.82l-2.1,1.95c.21,2.32.26,2.94.28,3.12h0a3.32,3.32,0,0,0,3.31,3,3.28,3.28,0,0,0,1.29-.26,3.29,3.29,0,0,0,1.29.26,3.32,3.32,0,0,0,3.31-3h0c0-.27.16-1.68.89-10a3.33,3.33,0,0,0,1.86-3ZM10.13,32.84c-.22,2.45-.41,4.64-.43,4.83v0a1.07,1.07,0,0,1-1.06,1A1,1,0,0,1,8,38.45a1.13,1.13,0,0,0-1.34,0,1,1,0,0,1-.62.21,1.06,1.06,0,0,1-1.06-1v0C5,37.31,4.3,29.88,4,27a1.13,1.13,0,0,0-.92-1A1.07,1.07,0,0,1,2.26,25V15.44a1.61,1.61,0,0,1,.46-1.27,3.5,3.5,0,0,1,1.62-.85l2.3,1.85a1.13,1.13,0,0,0,1.42,0l2.26-1.82,1-2.08A9,9,0,0,0,10.3,11a1.14,1.14,0,0,0-.93.23l-2,1.62-2-1.62A1.14,1.14,0,0,0,4.4,11a6.1,6.1,0,0,0-3.32,1.63A3.84,3.84,0,0,0,0,15.49V25a3.33,3.33,0,0,0,1.86,3c.73,8.21.86,9.66.89,10h0a3.32,3.32,0,0,0,3.31,3,3.28,3.28,0,0,0,1.29-.26,3.32,3.32,0,0,0,4.6-2.74h0c0-.17.07-.77.28-3.12ZM33.39,10.2h.06s.48.05.64.05.64-.05.64-.05h.06A4,4,0,0,0,37.93,7c.57-2.36.07-4.15-1.39-5a5.66,5.66,0,0,0-4.89,0c-1.47.9-2,2.69-1.39,5A4,4,0,0,0,33.39,10.2Zm-.57-6.36a3.67,3.67,0,0,1,2.53,0c.79.48.52,2,.37,2.58-.1.41-.42,1.38-1.29,1.54l-.35,0-.35,0c-.87-.16-1.19-1.13-1.29-1.54C32.3,5.81,32,4.32,32.82,3.84ZM6.65,10.2h.06s.48.05.64.05.64-.05.64-.05H8A4,4,0,0,0,11.19,7c.57-2.36.07-4.15-1.4-5a5.22,5.22,0,0,0-2.44-.55,5.21,5.21,0,0,0-2.45.56c-1.47.9-2,2.69-1.39,5A4,4,0,0,0,6.65,10.2ZM6.08,3.84a3.08,3.08,0,0,1,1.27-.22,3.1,3.1,0,0,1,1.27.23c.78.48.52,2,.37,2.58C8.89,6.84,8.57,7.81,7.7,8L7.35,8,7,8C6.13,7.81,5.8,6.84,5.7,6.42,5.56,5.81,5.3,4.32,6.08,3.84ZM20,9.42H20c.18,0,.51.06.69.06s.5,0,.69-.05h.06A4.26,4.26,0,0,0,24.79,6c.61-2.52.08-4.42-1.47-5.37A5.55,5.55,0,0,0,20.72,0a5.55,5.55,0,0,0-2.61.59C16.56,1.54,16,3.45,16.64,6A4.26,4.26,0,0,0,20,9.42Zm-.68-6.9a3.4,3.4,0,0,1,1.43-.26,3.39,3.39,0,0,1,1.43.26c.91.55.62,2.22.45,2.91-.11.47-.48,1.57-1.49,1.75l-.39,0-.39,0C19.32,7,19,5.9,18.84,5.43,18.67,4.74,18.38,3.07,19.29,2.52Zm8.2,12.76a5,5,0,0,0-3.66-4.71l-.48-.11a1.13,1.13,0,0,0-1,.3l-1.62,1.6-1.62-1.6a1.13,1.13,0,0,0-1-.3l-.52.12a4.94,4.94,0,0,0-3.62,4.69c-1.1,10.21-1.1,10.21-1.1,10.29a3.48,3.48,0,0,0,.79,2.2l-.47,2.35A2.34,2.34,0,0,0,15.46,33l.87,6.44c0,.08,0,.16,0,.23a3.5,3.5,0,0,0,3.49,3.14,3.42,3.42,0,0,0,.86-.11,3.43,3.43,0,0,0,.86.11,3.5,3.5,0,0,0,3.49-3.14c0-.07,0-.15,0-.22L26,33a2.34,2.34,0,0,0,2.3-2.86l-.47-2.35a3.49,3.49,0,0,0,.79-2.2C28.59,25.47,28.59,25.47,27.49,15.28Zm-2,12.33.59,2.94a.11.11,0,0,1-.13.16H25a1.13,1.13,0,0,0-1.12,1l-1,7.43,0,.16s0,.06,0,.09a1.23,1.23,0,0,1-1.7,1.05,1.15,1.15,0,0,0-.41-.08,1.12,1.12,0,0,0-.41.08,1.23,1.23,0,0,1-1.7-1.06s0-.06,0-.09,0-.1,0-.17l-1-7.43a1.13,1.13,0,0,0-1.12-1h-.94a.18.18,0,0,1-.13,0,.19.19,0,0,1,0-.13L16,27.61a1.13,1.13,0,0,0-.39-1.09,1.26,1.26,0,0,1-.47-.92c.09-.86,1.08-10.1,1.09-10.12A2.78,2.78,0,0,1,18,12.81l2,1.93a1.13,1.13,0,0,0,1.58,0l2-1.93a2.8,2.8,0,0,1,1.77,2.69s1,9.24,1.09,10.1a1.26,1.26,0,0,1-.47.92A1.13,1.13,0,0,0,25.47,27.61Z"/></g></g></svg>