<svg xmlns="http://www.w3.org/2000/svg" viewBox="0 0 175.57 285.67"><defs><style>.cls-1{fill:#fff;}</style></defs><title>Asset 1</title><g id="Layer_2" data-name="Layer 2"><g id="Layer_1-2" data-name="Layer 1"><path class="cls-1" d="M87.67,285.67c-41.5,0-76.8-27.9-86-70.6a74.68,74.68,0,0,1-1.6-14.9c-.1-35.8-.1-73,0-114,0-42.5,33.8-80.1,76.8-85.5a88.15,88.15,0,0,1,97.8,74.8,102.69,102.69,0,0,1,.8,14.7h0c.1,25.2.3,95-.5,115.2-.8,18-8.3,35.9-21.1,50.5s-29.6,24.4-47.5,28A101.11,101.11,0,0,1,87.67,285.67Zm0-275.6a75.73,75.73,0,0,0-9.5.6c-38.1,4.7-68,38-68.1,75.6-.1,40.9-.1,78.1,0,113.9a61.2,61.2,0,0,0,1.4,12.8c9.4,43.5,49.3,69.7,92.9,61,32.6-6.5,59.3-36.9,60.6-69.2.8-20,.7-89.6.5-114.7h0a94,94,0,0,0-.7-13.2,78.08,78.08,0,0,0-77.1-66.8Z"/><circle class="cls-1" cx="88.38" cy="71.27" r="12.4"/></g></g></svg>