<?xml version="1.0" encoding="utf-8"?>
<!-- Generator: Adobe Illustrator 19.1.0, SVG Export Plug-In . SVG Version: 6.00 Build 0)  -->
<svg version="1.1" id="Law_and_Order_Icons" xmlns="http://www.w3.org/2000/svg" xmlns:xlink="http://www.w3.org/1999/xlink"
	 x="0px" y="0px" viewBox="0 0 42.1 43.2" style="enable-background:new 0 0 42.1 43.2;" xml:space="preserve">
<style type="text/css">
	.st0{fill:#D3B167;}
</style>
<path class="st0" d="M41.7,15.7c0-1.1-0.3-2.1-1.1-2.9c-0.8-0.8-1.9-1.3-3.3-1.6c-0.3-0.1-0.7,0-0.9,0.2l-2,1.6l-2-1.6
	c-0.3-0.2-0.6-0.3-0.9-0.2c-0.4,0.1-0.7,0.2-1.1,0.3l1,2.1l2.3,1.8c0.4,0.3,1,0.3,1.4,0l2.3-1.8c0.7,0.2,1.3,0.5,1.6,0.9
	c0.3,0.4,0.5,0.8,0.5,1.3c0,0,0,0,0,0.1l0,9.5c0,0.5-0.4,1-0.9,1.1c-0.5,0.1-0.9,0.5-0.9,1c-0.3,2.9-0.9,10.3-0.9,10.6l0,0
	c-0.1,0.6-0.5,1-1.1,1c-0.2,0-0.4-0.1-0.6-0.2c-0.2-0.1-0.4-0.2-0.7-0.2c-0.2,0-0.5,0.1-0.7,0.2c-0.2,0.1-0.4,0.2-0.6,0.2
	c-0.5,0-1-0.4-1.1-1c0,0,0,0,0,0c0-0.2-0.2-2.4-0.4-4.8l-2.1,1.9c0.2,2.3,0.3,2.9,0.3,3.1h0c0.2,1.7,1.6,3,3.3,3
	c0.4,0,0.9-0.1,1.3-0.3c0.4,0.2,0.8,0.3,1.3,0.3c1.7,0,3.1-1.3,3.3-3h0c0-0.3,0.2-1.7,0.9-10c1.1-0.5,1.9-1.7,1.9-3L41.7,15.7z
	 M10.4,33c-0.2,2.4-0.4,4.6-0.4,4.8l0,0c-0.1,0.6-0.5,1-1.1,1c-0.2,0-0.4-0.1-0.6-0.2c-0.2-0.1-0.4-0.2-0.7-0.2
	c-0.2,0-0.5,0.1-0.7,0.2c-0.1,0.1-0.3,0.2-0.6,0.2c-0.5,0-1-0.4-1.1-1c0,0,0,0,0,0c0-0.4-0.7-7.8-0.9-10.6c0-0.5-0.4-0.9-0.9-1
	c-0.5-0.1-0.9-0.5-0.9-1.1l0-9.5c0-0.5,0.1-0.9,0.5-1.3c0.3-0.4,0.9-0.7,1.6-0.9L7,15.3c0.4,0.3,1,0.3,1.4,0l2.3-1.8l1-2.1
	c-0.3-0.1-0.7-0.2-1.1-0.3c-0.3-0.1-0.7,0-0.9,0.2l-2,1.6l-2-1.6c-0.3-0.2-0.6-0.3-0.9-0.2c-1.4,0.3-2.6,0.8-3.3,1.6
	c-0.8,0.8-1.1,1.8-1.1,2.9l0,9.5c0,1.3,0.7,2.4,1.9,3c0.7,8.2,0.9,9.7,0.9,10h0c0.2,1.7,1.6,3,3.3,3c0.4,0,0.9-0.1,1.3-0.3
	C8.1,41,8.5,41.1,9,41.1c1.7,0,3.1-1.3,3.3-3h0c0-0.2,0.1-0.8,0.3-3.1L10.4,33z M33.7,10.4L33.7,10.4c0.1,0,0.5,0.1,0.7,0.1
	c0.2,0,0.6-0.1,0.6-0.1l0.1,0c1.5-0.3,2.7-1.5,3.1-3.2c0.6-2.4,0.1-4.1-1.4-5c-0.8-0.5-2.1-0.6-2.4-0.6c-0.4,0-1.6,0-2.4,0.6
	c-1.5,0.9-2,2.7-1.4,5C31,8.9,32.2,10.1,33.7,10.4z M33.1,4c0.2-0.1,0.7-0.2,1.3-0.2s1.1,0.1,1.3,0.2c0.8,0.5,0.5,2,0.4,2.6
	C35.9,7,35.6,8,34.7,8.1c-0.1,0-0.3,0-0.3,0c-0.1,0-0.3,0-0.3,0C33.2,8,32.9,7,32.8,6.6C32.6,6,32.3,4.5,33.1,4z M7,10.4L7,10.4
	c0.1,0,0.5,0.1,0.7,0.1c0.2,0,0.6-0.1,0.6-0.1l0.1,0c1.5-0.3,2.7-1.5,3.1-3.2c0.6-2.4,0.1-4.1-1.4-5C9.3,1.6,8,1.5,7.7,1.5
	c-0.4,0-1.6,0-2.4,0.6c-1.5,0.9-2,2.7-1.4,5C4.2,8.9,5.4,10.1,7,10.4z M6.4,4c0.2-0.1,0.7-0.2,1.3-0.2c0.6,0,1.1,0.1,1.3,0.2
	c0.8,0.5,0.5,2,0.4,2.6C9.2,7,8.9,8,8,8.1c-0.1,0-0.3,0-0.3,0c-0.1,0-0.3,0-0.3,0C6.4,8,6.1,7,6,6.6C5.9,6,5.6,4.5,6.4,4z M20.3,9.6
	L20.3,9.6c0.2,0,0.6,0.1,0.7,0.1c0.2,0,0.5,0,0.7-0.1l0.1,0c1.6-0.3,2.9-1.6,3.3-3.5c0.6-2.5,0.1-4.4-1.5-5.4
	c-0.9-0.5-2.2-0.6-2.6-0.6c-0.4,0-1.7,0-2.6,0.6c-1.6,0.9-2.1,2.9-1.5,5.4C17.4,8,18.7,9.3,20.3,9.6z M19.6,2.7
	c0.2-0.1,0.8-0.3,1.4-0.3c0.6,0,1.2,0.1,1.4,0.3c0.9,0.6,0.6,2.2,0.5,2.9c-0.1,0.5-0.5,1.6-1.5,1.8c-0.1,0-0.3,0-0.4,0
	c-0.1,0-0.3,0-0.4,0c-1-0.2-1.4-1.3-1.5-1.8C19,4.9,18.7,3.2,19.6,2.7z M27.8,15.4c-0.3-3.3-2.4-4.4-3.7-4.7c-0.2,0-0.3-0.1-0.5-0.1
	c-0.4-0.1-0.7,0-1,0.3L21,12.5l-1.6-1.6c-0.3-0.3-0.6-0.4-1-0.3c-0.2,0-0.3,0.1-0.5,0.1c-1.2,0.3-3.3,1.4-3.6,4.7
	c-1.1,10.2-1.1,10.2-1.1,10.3c0,0.8,0.3,1.6,0.8,2.2l-0.5,2.4c-0.1,0.7,0,1.5,0.5,2c0.4,0.5,1.1,0.8,1.8,0.9l0.9,6.4
	c0,0.1,0,0.2,0,0.2c0.2,1.8,1.7,3.1,3.5,3.1c0.3,0,0.6,0,0.9-0.1c0.3,0.1,0.6,0.1,0.9,0.1c1.8,0,3.3-1.3,3.5-3.1c0-0.1,0-0.1,0-0.2
	l0.9-6.4c0.7,0,1.4-0.3,1.8-0.9c0.4-0.5,0.6-1.3,0.5-2l-0.5-2.4c0.5-0.6,0.8-1.4,0.8-2.2C28.9,25.6,28.9,25.6,27.8,15.4z M25.8,27.8
	l0.6,2.9c0,0.1,0,0.1,0,0.1c0,0-0.1,0-0.1,0h-0.9c-0.6,0-1,0.4-1.1,1l-1,7.4c0,0.1,0,0.1,0,0.2c0,0,0,0.1,0,0.1
	c-0.1,0.8-0.8,1.4-1.7,1.1c-0.1,0-0.3-0.1-0.4-0.1c-0.1,0-0.3,0-0.4,0.1c-0.9,0.3-1.6-0.3-1.7-1.1c0,0,0-0.1,0-0.1
	c0-0.1,0-0.1,0-0.2l-1-7.4c-0.1-0.6-0.6-1-1.1-1h-0.9c-0.1,0-0.1,0-0.1,0c0,0,0,0,0-0.1l0.6-2.9c0.1-0.4-0.1-0.8-0.4-1.1
	c-0.3-0.2-0.5-0.6-0.5-0.9c0.1-0.9,1.1-10.1,1.1-10.1c0.1-1.4,0.7-2.3,1.8-2.7l2,1.9c0.4,0.4,1.1,0.4,1.6,0l2-1.9
	c1.1,0.4,1.6,1.3,1.8,2.7c0,0,1,9.2,1.1,10.1c0,0.4-0.2,0.7-0.5,0.9C25.9,26.9,25.7,27.4,25.8,27.8z"/>
</svg>
