<?xml version="1.0" encoding="utf-8"?>
<!-- Generator: Adobe Illustrator 19.1.0, SVG Export Plug-In . SVG Version: 6.00 Build 0)  -->
<svg version="1.1" id="Law_and_Order_Icons" xmlns="http://www.w3.org/2000/svg" xmlns:xlink="http://www.w3.org/1999/xlink"
	 x="0px" y="0px" viewBox="0 0 47.6 43.4" style="enable-background:new 0 0 47.6 43.4;" xml:space="preserve">
<style type="text/css">
	.st0{fill:#D3B167;}
</style>
<path class="st0" d="M46.7,25.9l-6.2-12.3c-0.4-1.2-1.4-2-2.7-2.1c-4.2-0.3-10.7-0.7-11.1-0.8c-0.3-0.1-0.7,0-0.9,0.2l-2.3,1.8
	l-2.3-1.8c-0.3-0.2-0.5-0.3-0.9-0.2c-0.5,0.1-6.9,0.5-11.1,0.8c-1.3,0.1-2.3,0.9-2.7,2.1L0.5,25.9c-0.1,0.2-0.1,0.3-0.1,0.5
	c0,3.7,2.8,6,7.3,6c4.5,0,7.3-2.3,7.3-6c0-0.2-0.1-0.5-0.2-0.6l-4.4-8.3l6.5,0.3c1.7,19,1.9,21.6,1.9,22h0c0.2,1.8,1.7,3.2,3.5,3.2
	c0.5,0,1-0.1,1.4-0.3C24,42.9,24.5,43,25,43c1.8,0,3.3-1.4,3.5-3.2h0c0-0.4,0.3-3,1.9-22l6.5-0.3l-4.4,8.3c-0.1,0.2-0.2,0.4-0.2,0.6
	c0,3.7,2.8,6,7.3,6s7.3-2.3,7.3-6C46.8,26.2,46.8,26,46.7,25.9z M7.6,30.1c-1.6,0-4.2-0.4-4.9-2.6h9.7C11.8,29.7,9.2,30.1,7.6,30.1z
	 M11.9,25.3H3.3l4.1-8.3L11.9,25.3z M29.3,15.6c-0.6,0-1,0.5-1.1,1c-1.3,14.2-2,22.6-2,22.9c0,0,0,0,0,0c-0.1,0.7-0.6,1.1-1.2,1.1
	c-0.3,0-0.5-0.1-0.7-0.2c-0.2-0.1-0.4-0.2-0.7-0.2c-0.2,0-0.5,0.1-0.7,0.2c-0.2,0.1-0.4,0.2-0.7,0.2c-0.6,0-1.2-0.5-1.2-1.1
	c0,0,0,0,0,0c0-0.5-1.5-16.7-2-22.9c0-0.6-0.5-1-1.1-1l-8.4-0.4c-0.4,0-0.7-0.3-0.7-0.7c0-0.4,0.3-0.8,0.7-0.8
	c5.8-0.4,9.5-0.6,10.8-0.7l2.6,2.1c0.4,0.3,1,0.3,1.4,0l2.6-2.1c1.3,0.1,5,0.4,10.8,0.7c0.4,0,0.7,0.4,0.7,0.8
	c0,0.4-0.3,0.7-0.7,0.7L29.3,15.6z M39.8,16.9l4.1,8.3h-8.6L39.8,16.9z M39.6,30.1c-1.6,0-4.2-0.4-4.9-2.6h9.7
	C43.8,29.7,41.2,30.1,39.6,30.1z M22.8,9.6L22.8,9.6c0.2,0,0.6,0.1,0.7,0.1s0.5,0,0.7-0.1l0.1,0c1.6-0.3,2.9-1.6,3.3-3.5
	c0.6-2.5,0.1-4.4-1.5-5.4c-0.9-0.5-2.2-0.6-2.6-0.6c-0.4,0-1.7,0-2.6,0.6c-1.6,0.9-2.1,2.9-1.5,5.4C20,8.1,21.2,9.4,22.8,9.6z
	 M22.2,2.7c0.2-0.1,0.8-0.3,1.4-0.3c0.6,0,1.2,0.1,1.4,0.3c0.9,0.6,0.6,2.2,0.5,2.9C25.4,6.1,25,7.2,24,7.4c-0.1,0-0.3,0-0.4,0
	c-0.1,0-0.3,0-0.4,0c-1-0.2-1.4-1.3-1.5-1.8C21.5,5,21.3,3.3,22.2,2.7z"/>
</svg>
