<?xml version="1.0" encoding="utf-8"?>
<!-- Generator: Adobe Illustrator 19.1.0, SVG Export Plug-In . SVG Version: 6.00 Build 0)  -->
<svg version="1.1" id="Layer_1" xmlns="http://www.w3.org/2000/svg" xmlns:xlink="http://www.w3.org/1999/xlink" x="0px" y="0px"
	 viewBox="-89.2 166.9 767.6 224.9" style="enable-background:new -89.2 166.9 767.6 224.9;" xml:space="preserve">
<style type="text/css">
	.st0{opacity:0.15;}
	.st1{fill:#D3B167;}
</style>
<g class="st0">
	<path class="st1" d="M-24.2,208.6c39.7,0,56.7,20,55.2,57.7h-71.4v9.9c0,29.9,5.3,50.1,29.9,50.1c18.7,0,31.4-11.9,36.9-31.4
		l4.6,0.8c-5.8,21.8-19,38.5-54.9,38.5c-45,0-65.3-25.8-65.3-62.5C-89.2,227.9-59.4,208.6-24.2,208.6z M-14.1,261.2v-12.4
		c0-26.6-2-35.4-12.4-35.4c-8.9,0-13.7,8.6-13.7,35.4v12.4C-40.2,261.2-14.1,261.2-14.1,261.2z"/>
	<path class="st1" d="M151.4,215.7h-18.2v-4.6h37.7v4.6h-13.2l-32.9,46.6l41.2,64.8h13.2v4.6H94.7V327h18l-27.8-45.5L56,327h16.7
		v4.6H33V327h16.7l32.1-50.6l-38.5-60.7H28.6v-4.6h85.5v4.6H96.4l25,41.2L151.4,215.7z"/>
	<path class="st1" d="M237.2,231.1c5.6-12.7,15.2-22.5,34.9-22.5c28.3,0,45.8,20,45.8,63c0,43.3-17.7,62.5-52.1,62.5
		c-17.2,0-23.5-4.6-28.1-12.4v65.5h32.6v4.6h-93.6v-4.6h13.9V215.7h-13.4v-4.6h60L237.2,231.1L237.2,231.1z M237.7,254.4v46.3
		c0,13.7,5.3,26.1,16.4,26.1c12.4,0,14.9-14.9,14.9-50.1v-13.2c0-35.7-3-44-11.6-44C247,219.5,237.7,232.4,237.7,254.4z"/>
	<path class="st1" d="M391.7,208.6c39.7,0,56.7,20,55.2,57.7h-71.3v9.9c0,29.9,5.3,50.1,29.9,50.1c18.7,0,31.4-11.9,36.9-31.4
		l4.6,0.8c-5.8,21.8-19,38.5-54.9,38.5c-45,0-65.3-25.8-65.3-62.5C326.7,227.9,356.6,208.6,391.7,208.6z M401.9,261.2v-12.4
		c0-26.6-2-35.4-12.4-35.4c-8.9,0-13.7,8.6-13.7,35.4v12.4C375.8,261.2,401.9,261.2,401.9,261.2z"/>
	<path class="st1" d="M517,259.2V327h18v4.6h-79V327h13.9V215.7H456v-4.6h61v24.3c4.6-18,18.7-26.8,33.9-26.8
		c14.9,0,26.8,7.8,26.8,27.1c0,14.4-7.6,24-21.3,24c-17,0-25-10.6-19.7-28.6h9.1c5.1-10.4,0-12.9-5.3-12.9
		C528.4,218.2,517,236.5,517,259.2z"/>
	<path class="st1" d="M593.9,215.7H580v-4.6h13.9v-32.6l47.1-11.6v44.3h32.9v4.6H641V301c0,14.9,2.3,23,11.1,23
		c12.1,0,19.7-11.1,22-28.3l4.3,0.5c-2.3,19.7-10.6,38-41.5,38c-25,0-43-7.3-43-38.7L593.9,215.7L593.9,215.7z"/>
</g>
</svg>
