<?xml version="1.0" encoding="utf-8"?>
<!-- Generator: Adobe Illustrator 19.1.0, SVG Export Plug-In . SVG Version: 6.00 Build 0)  -->
<svg version="1.1" id="Law_and_Order_Icons" xmlns="http://www.w3.org/2000/svg" xmlns:xlink="http://www.w3.org/1999/xlink"
	 x="0px" y="0px" viewBox="0 0 54.4 42.9" style="enable-background:new 0 0 54.4 42.9;" xml:space="preserve">
<style type="text/css">
	.st0{fill:#D3B167;}
</style>
<path class="st0" d="M11,13.8h32.4c0.6,0,1.1-0.5,1.1-1.1V9.3c0-0.4-0.2-0.8-0.6-1L27.7,0.4c-0.3-0.2-0.7-0.2-1,0L10.5,8.3
	c-0.4,0.2-0.6,0.6-0.6,1v3.4C9.9,13.3,10.4,13.8,11,13.8z M12.1,10l15.1-7.3L42.3,10v1.5H12.1V10z M53.1,25.7c0.6,0,1.1-0.5,1.1-1.1
	v-4.2c0-0.6-0.5-1.1-1.1-1.1h-7.4v2.3h6.2v2h-6.2v2.3h2.9v14.7h-5.7V16.6h-2.3v23.7h-5V16.6h-2.3v23.7h-5V16.6h-2.3v23.7h-5V16.6
	h-2.3v23.7h-5V16.6h-2.3v23.7H5.8V25.7h2.9v-2.3H2.5v-2h6.2v-2.3H1.4c-0.6,0-1.1,0.5-1.1,1.1v4.2c0,0.6,0.5,1.1,1.1,1.1h2.2v14.7
	H0.3v2.3h53.9v-2.3h-3.3V25.7H53.1z"/>
</svg>
