<?xml version="1.0" encoding="utf-8"?>
<!-- Generator: Adobe Illustrator 19.1.0, SVG Export Plug-In . SVG Version: 6.00 Build 0)  -->
<svg version="1.1" id="Layer_1" xmlns="http://www.w3.org/2000/svg" xmlns:xlink="http://www.w3.org/1999/xlink" x="0px" y="0px"
	 viewBox="81 156 1121.9 249" style="enable-background:new 81 156 1121.9 249;" xml:space="preserve">
<style type="text/css">
	.st0{opacity:0.15;}
	.st1{fill:#D3B167;}
</style>
<g class="st0">
	<path class="st1" d="M141.7,272.9v67.5h17.9v4.5H81v-4.5h13.9V229.6H81V225h60.7v24.2c4.5-17.9,18.6-26.7,33.8-26.7
		c14.9,0,26.7,7.8,26.7,27c0,14.4-7.6,23.9-21.2,23.9c-16.9,0-24.9-10.6-19.7-28.5h9.1c5-10.3,0-12.9-5.3-12.9
		C153.1,232.1,141.7,250.2,141.7,272.9z"/>
	<path class="st1" d="M270.5,222.5c39.6,0,56.4,19.9,54.9,57.5h-71.1v9.8c0,29.7,5.3,49.9,29.7,49.9c18.6,0,31.2-11.8,36.8-31.2
		l4.5,0.8c-5.8,21.7-18.9,38.3-54.7,38.3c-44.9,0-65-25.7-65-62.2C205.7,241.7,235.5,222.5,270.5,222.5z M280.6,274.9v-12.3
		c0-26.5-2-35.3-12.3-35.3c-8.8,0-13.6,8.6-13.6,35.3v12.3C254.7,274.9,280.6,274.9,280.6,274.9z"/>
	<path class="st1" d="M337.8,302.4h3c9.3,30.7,24.7,39.6,45.4,39.6c18.6,0,25.7-6.8,25.7-16.4c0-11.3-12.3-13.9-31.5-19.2
		c-20.2-5.5-42.6-13.4-42.6-41.3c0-25.7,17.6-42.6,44.4-42.6c11.1,0,18.6,2.8,25.5,5.8c3,1.3,4,2,7.1,2c3.8,0,5.5-2,8.8-8.3h2.8
		v38.6h-3c-9.1-23.2-21.9-32.8-39.8-32.8c-16.6,0-23.4,6.8-23.4,14.6c0,11.6,15.1,14.4,31.8,18.9c19.9,5.3,42.1,13.4,42.1,43.1
		c0,28.7-18.6,43.1-47.1,43.1c-12.1,0-20.7-2.5-30.2-7.3c-1.5-1-3.8-2-4.8-2c-3.3,0-6.8,2.3-10.8,9.3h-3v-45.1H337.8z"/>
	<path class="st1" d="M497.3,245c5.5-12.6,15.1-22.4,34.8-22.4c28.2,0,45.6,19.9,45.6,62.7c0,43.1-17.6,62.2-51.9,62.2
		c-17.1,0-23.4-4.5-28-12.3v65.3h32.5v4.5h-93.2v-4.5H451V229.6h-13.4V225h59.7V245z M497.8,268.1v46.1c0,13.6,5.3,26,16.4,26
		c12.3,0,14.9-14.9,14.9-49.9v-13.1c0-35.5-3-43.8-11.6-43.8C507.1,233.4,497.8,246.2,497.8,268.1z"/>
	<path class="st1" d="M651.3,222.5c39.6,0,56.4,19.9,54.9,57.5h-71.1v9.8c0,29.7,5.3,49.9,29.7,49.9c18.6,0,31.2-11.8,36.8-31.2
		l4.5,0.8c-5.8,21.7-18.9,38.3-54.7,38.3c-44.9,0-65-25.7-65-62.2C586.5,241.7,616.2,222.5,651.3,222.5z M661.4,274.9v-12.3
		c0-26.5-2-35.3-12.3-35.3c-8.8,0-13.6,8.6-13.6,35.3v12.3C635.5,274.9,661.4,274.9,661.4,274.9z"/>
	<path class="st1" d="M765.2,279.2v13.1c0,32.3,5.8,46.6,25.5,46.6c22.9,0,32.8-19.4,35.5-33l4.5,0.5c-3.3,15.6-11.6,41.1-53.7,41.1
		c-38.8,0-60.5-21.7-60.5-61c0-42.3,25.7-64,67.3-64c30.7,0,46.1,13.1,46.1,32c0,15.6-8.3,23.7-20.9,23.7
		c-13.1,0-22.4-6.8-22.4-20.9c0-2.3,0.3-5.5,1.3-9.1h8.3c1.3-3.5,1.8-6.6,1.8-9.1c0-8.6-5-12.1-12.1-12.1
		C771.2,227.1,765.2,241.7,765.2,279.2z"/>
	<path class="st1" d="M844.6,229.6h-13.9V225h13.9v-32.5l46.9-11.6V225h32.8v4.5h-32.8v84.9c0,14.9,2.3,22.9,11.1,22.9
		c12.1,0,19.7-11.1,21.9-28.2l4.3,0.5c-2.3,19.7-10.6,37.8-41.3,37.8c-24.9,0-42.8-7.3-42.8-38.6v-79.2H844.6z"/>
	<path class="st1" d="M997.3,222.5c39.6,0,56.4,19.9,54.9,57.5h-71.1v9.8c0,29.7,5.3,49.9,29.7,49.9c18.6,0,31.2-11.8,36.8-31.2
		l4.5,0.8c-5.8,21.7-18.9,38.3-54.7,38.3c-44.9,0-65-25.7-65-62.2C932.5,241.7,962.2,222.5,997.3,222.5z M1007.3,274.9v-12.3
		c0-26.5-2-35.3-12.3-35.3c-8.8,0-13.6,8.6-13.6,35.3v12.3C981.4,274.9,1007.3,274.9,1007.3,274.9z"/>
	<path class="st1" d="M1144.2,327.4c-5.3,12.6-15.1,20.2-34.8,20.2c-28,0-45.6-19.9-45.6-62.2c0-42.6,17.6-62.7,49.9-62.7
		c15.6,0,24.7,4.5,29.2,12.3v-74.5h-15.4V156h63v184.5h12.3v4.5H1147L1144.2,327.4z M1143.7,310.7v-54.9c0-13.6-5.3-26-16.4-26
		c-12.3,0-14.9,14.9-14.9,49.9v13.1c0,35.5,3,43.8,13.9,43.8C1133.6,336.7,1143.7,329.6,1143.7,310.7z"/>
</g>
</svg>
