<?xml version="1.0" encoding="utf-8"?>
<!-- Generator: Adobe Illustrator 19.1.0, SVG Export Plug-In . SVG Version: 6.00 Build 0)  -->
<svg version="1.1" id="Layer_1" xmlns="http://www.w3.org/2000/svg" xmlns:xlink="http://www.w3.org/1999/xlink" x="0px" y="0px"
	 viewBox="18.8 171 978.4 196" style="enable-background:new 18.8 171 978.4 196;" xml:space="preserve">
<style type="text/css">
	.st0{opacity:0.18;}
	.st1{fill:#D3B167;}
</style>
<g class="st0">
	<path class="st1" d="M67.1,299v13.1c0,32,5.8,46.3,25.3,46.3c22.8,0,32.6-19.2,35.3-32.8l4.5,0.5c-3.2,15.5-11.5,40.8-53.3,40.8
		c-38.6,0-60.1-21.5-60.1-60.6c0-42,25.5-63.6,66.8-63.6c30.5,0,45.8,13.1,45.8,31.8c0,15.5-8.2,23.6-20.8,23.6
		c-13.1,0-22.3-6.8-22.3-20.8c0-2.3,0.3-5.5,1.3-9h8.2c1.3-3.5,1.8-6.5,1.8-9c0-8.5-5-12-12-12C73.2,247.3,67.1,261.7,67.1,299z"/>
	<path class="st1" d="M204,242.8c39.3,0,56,19.7,54.6,57H188v9.7c0,29.5,5.3,49.6,29.5,49.6c18.6,0,31-11.8,36.5-31l4.5,0.8
		c-5.8,21.5-18.7,38.1-54.3,38.1c-44.6,0-64.6-25.5-64.6-61.8C139.7,261.7,169.3,242.8,204,242.8z M214,294.8v-12.3
		c0-26.3-2-35-12.3-35c-8.7,0-13.5,8.5-13.5,35v12.3H214z"/>
	<path class="st1" d="M326.9,292.9v67h17.8v4.5h-78.1v-4.5h13.7V249.8h-13.7v-4.5H327v24c4.5-17.8,18.6-26.5,33.6-26.5
		c14.7,0,26.5,7.8,26.5,26.8c0,14.2-7.6,23.8-21,23.8c-16.8,0-24.7-10.5-19.5-28.3h9c5-10.3,0-12.8-5.3-12.8
		C338.2,252.3,326.9,270.3,326.9,292.9z"/>
	<path class="st1" d="M406.1,249.8h-13.7v-4.5h13.7V213l46.5-11.5v43.8h32.6v4.5h-32.6v84.3c0,14.7,2.3,22.8,11,22.8
		c12,0,19.5-11,21.8-28.1l4.2,0.5c-2.3,19.5-10.5,37.6-41,37.6c-24.7,0-42.6-7.3-42.6-38.3L406.1,249.8L406.1,249.8z"/>
	<path class="st1" d="M552.4,245.2v114.7h14v4.5h-74.3v-4.5h13.7V249.8h-14.7v-4.5C491.2,245.2,552.4,245.2,552.4,245.2z M530,181.4
		c15.5,0,24.7,7.8,24.7,23.1c0,13.3-7.3,23.6-25.3,23.6c-20.3,0-25-12.8-25-23.3C504.4,192.4,511.2,181.4,530,181.4z"/>
	<path class="st1" d="M628.8,205.2v40h82.4v114.7h14v4.5h-71.9v-4.5h11.3V249.8h-35.8v110.1h16v4.5h-76.4v-4.5h13.7V249.8h-14.5
		v-4.5h14.5v-0.5c0-45.5,25.3-73.8,77.3-73.8c29.3,0,45.3,14.2,45.3,30.5c0,15-9.5,21.8-21.3,21.8c-13.5,0-20.8-7.5-20.8-17.8
		c0-3.7,0.8-7.8,1.5-10.8l10.3-2.7c4.5-12.3-6-16.8-17.6-16.8C637.3,175.2,628.8,186.2,628.8,205.2z"/>
	<path class="st1" d="M792.8,242.8c39.3,0,56,19.7,54.6,57h-70.6v9.7c0,29.5,5.3,49.6,29.5,49.6c18.6,0,31-11.8,36.5-31l4.5,0.8
		c-5.8,21.5-18.7,38.1-54.3,38.1c-44.6,0-64.6-25.5-64.6-61.8C728.4,261.7,758,242.8,792.8,242.8z M802.8,294.8v-12.3
		c0-26.3-2-35-12.3-35c-8.7,0-13.5,8.5-13.5,35v12.3H802.8z"/>
	<path class="st1" d="M938.7,346.8c-5.3,12.6-15,20-34.6,20c-27.8,0-45.3-19.7-45.3-61.8c0-42.3,17.5-62.3,49.6-62.3
		c15.5,0,24.5,4.5,29.1,12.3v-73.8h-15.2v-4.5h62.6V360h12.3v4.5h-55.6L938.7,346.8z M938.2,330.4v-54.6c0-13.5-5.3-25.8-16.3-25.8
		c-12.3,0-14.7,14.7-14.7,49.6v13.1c0,35.3,3,43.6,13.7,43.6C928.2,356.2,938.2,349.1,938.2,330.4z"/>
</g>
</svg>
