<?xml version="1.0" encoding="utf-8"?>
<!-- Generator: Adobe Illustrator 19.1.0, SVG Export Plug-In . SVG Version: 6.00 Build 0)  -->
<svg version="1.1" id="Layer_1" xmlns="http://www.w3.org/2000/svg" xmlns:xlink="http://www.w3.org/1999/xlink" x="0px" y="0px"
	 viewBox="0 0 180 290" style="enable-background:new 0 0 180 290;" xml:space="preserve">
<g>
	<path d="M89.7,288.3c-41.5,0-76.8-27.9-86-70.6c-1-4.9-1.6-9.9-1.6-14.9C2,167,2,129.8,2.1,88.8C2.1,46.3,35.9,8.7,78.9,3.3
		c22.4-2.8,44.8,3.2,63.2,16.8c18.8,14,31.1,34.6,34.6,58c0.7,4.9,0.8,9.7,0.8,14.7l0,0c0.1,25.2,0.3,95-0.5,115.2
		c-0.8,18-8.3,35.9-21.1,50.5c-12.8,14.5-29.6,24.4-47.5,28C102,287.7,95.8,288.3,89.7,288.3z M89.7,12.7c-3.2,0-6.3,0.2-9.5,0.6
		c-38.1,4.7-68,38-68.1,75.6C12,129.8,12,167,12.1,202.8c0,4.3,0.5,8.6,1.4,12.8c9.4,43.5,49.3,69.7,92.9,61
		c32.6-6.5,59.3-36.9,60.6-69.2c0.8-20,0.7-89.6,0.5-114.7v0c0-4.6-0.1-9-0.7-13.2c-3.1-20.8-14-39-30.7-51.4
		C122.5,18,106.3,12.7,89.7,12.7z"/>
</g>
<circle cx="90.4" cy="73.9" r="12.4"/>
</svg>
