<?xml version="1.0" encoding="utf-8"?>
<!-- Generator: Adobe Illustrator 19.1.0, SVG Export Plug-In . SVG Version: 6.00 Build 0)  -->
<svg version="1.1" id="Layer_1" xmlns="http://www.w3.org/2000/svg" xmlns:xlink="http://www.w3.org/1999/xlink" x="0px" y="0px"
	 viewBox="-278 142.4 402.2 276.6" style="enable-background:new -278 142.4 402.2 276.6;" xml:space="preserve">
<style type="text/css">
	.st0{opacity:0.18;}
	.st1{fill:#D3B167;}
</style>
<g class="st0">
	<path class="st1" d="M-95.5,203.9c0,33.1-28.1,55.1-78.7,63.5v0.8c65.7,4.6,92,32.7,92,70.3c0,47.9-40.7,79-111.3,79
		c-36.5-0.1-83.6-12.2-83.6-57.4c0-19.8,11-36.5,34.6-36.5c19,0,32.7,11.8,32.7,29.6c0,7.2-1.1,12.2-3,17.1h-11.9
		c-1.5,4.2-2.3,8-2.3,12.5c0,10.3,3.8,27,31.9,27c31.9,0,38.8-26.2,38.8-70.3c0-40.7-12.2-56.2-30.8-65.4
		c-12.2,2.7-17.9,3.4-33.1,4.9l-1.1-8.4c44.5-4.6,54.3-15.6,54.3-66.1c0-33.1-6.1-54.3-28.1-54.3c-20.5,0-26.6,16.7-26.6,28.9
		c0,3,0.8,6.8,2.3,11h11c1.9,4.9,3,9.9,3,17.1c0,17.9-14.4,29.6-33.4,29.6c-23.6,0-33.8-16.7-33.8-35.3c0-31.9,29.3-58.1,87.8-58.1
		C-118.6,143.5-95.5,166.6-95.5,203.9z"/>
	<path class="st1" d="M-36.6,276.1l-6.5-3V151.8l6.1-4.6c31.5,4.6,114.8,12.9,125.8,12.9c8.7,0,12.2-4.6,15.2-16l5.7,0.8
		c-6.1,61.9-12.9,74.9-27.7,74.9c-8.4,0-18.6-3-31.5-6.5l-82.8-21.7l-1.9,73.7c17.1-9.1,37.2-14.8,59.7-14.8
		c76,0,97.7,39.9,97.7,79.4C123,384.4,81.6,417.4,14,417.4c-30.4,0-78.7-11.8-78.7-58.5c0-18.6,11-35.3,34.6-35.3
		c19,0,32.7,10.3,32.7,29.6c0,7.2-1.5,14.4-3.4,19.4h-12.5c-1.5,4.2-2.3,8-2.3,12.5c0,10.3,5.3,24.7,28.5,24.7
		c32.3,0,33.4-30.8,33.4-82.8c0-47.5-3.8-67.3-34.2-67.3C-3.9,259.7-20.6,266.2-36.6,276.1z"/>
</g>
</svg>
