<?xml version="1.0" encoding="utf-8"?>
<!-- Generator: Adobe Illustrator 19.1.0, SVG Export Plug-In . SVG Version: 6.00 Build 0)  -->
<svg version="1.1" id="Law_and_Order_Icons" xmlns="http://www.w3.org/2000/svg" xmlns:xlink="http://www.w3.org/1999/xlink"
	 x="0px" y="0px" viewBox="-455 259.9 48.1 43.1" style="enable-background:new -455 259.9 48.1 43.1;" xml:space="preserve">
<style type="text/css">
	.st0{fill:#D3B167;}
</style>
<path class="st0" d="M-407.4,301l-1.8-4.5c-0.2-0.4-0.6-0.7-1-0.7h-0.9v-2.3c0-0.6-0.5-1.1-1.1-1.1h-14c-0.6,0-1.1,0.5-1.1,1.1v2.3
	h-0.9c-0.5,0-0.9,0.3-1,0.7l-1.8,4.5c-0.1,0.3-0.1,0.7,0.1,1.1c0.2,0.3,0.6,0.5,0.9,0.5h21.6c0.4,0,0.7-0.2,0.9-0.5
	C-407.3,301.7-407.3,301.3-407.4,301z M-428.4,300.2l0.9-2.2h1.3c0.6,0,1.1-0.5,1.1-1.1v-2.3h11.7v2.3c0,0.6,0.5,1.1,1.1,1.1h1.3
	l0.9,2.2H-428.4z M-447.8,297.5c-0.5,0.6-1.2,0.9-1.9,0.9c-0.6,0-1.2-0.2-1.7-0.6s-0.8-1.1-0.9-1.7c0-0.7,0.2-1.3,0.6-1.9
	c0.2-0.2,0.2-0.3,0.3-0.3l13.9-12.1l-1.6-1.6l-13.8,12c-0.1,0.1-0.3,0.3-0.5,0.5c-0.8,1-1.3,2.2-1.2,3.5c0.1,1.3,0.7,2.5,1.6,3.3
	c0.9,0.8,2,1.2,3.2,1.2c1.4,0,2.7-0.6,3.6-1.7l12-13.8l-1.6-1.6L-447.8,297.5z M-429.2,284.8c0.2,0.3,0.4,0.5,0.6,0.8
	c1.5,2,2.5,3.3,2.5,3.3c0.5,0.5,1.4,0.9,2.2,0.9c0.4,0,0.7-0.1,1.1-0.2l0.2-0.1c3.5-1.9,6.4-4.8,8.3-8.3l0.1-0.1
	c0.4-1.1,0.1-2.5-0.7-3.3c0,0-2.7-2.1-4.1-3.1c0.2-0.8,0-1.7-0.6-2.3l-6.6-6.6c-0.5-0.5-1.1-0.7-1.7-0.7c-0.2,0-0.4,0-0.6,0.1
	c-1-1.3-3.1-4.1-3.1-4.1c-0.8-0.8-2.2-1.1-3.3-0.7l-0.1,0.1c-3.5,1.9-6.1,4.4-8.2,7.9l-0.2,0.5c-0.4,1.1-0.1,2.5,0.7,3.3
	c0,0,2.7,2.1,4.1,3.1c-0.2,0.8,0,1.7,0.6,2.3l6.6,6.6c0.5,0.5,1.1,0.7,1.7,0.7C-429.6,284.9-429.4,284.8-429.2,284.8z M-416.6,279.4
	c0.1,0.2,0.2,0.5,0.2,0.8c-1.7,3.1-4.2,5.6-7.3,7.3c-0.3,0.1-0.7,0-0.8-0.2c-0.1-0.1-0.3-0.4-0.5-0.7l7.8-7.8
	C-416.9,279.1-416.7,279.3-416.6,279.4z M-419.3,277.3c0.1,0.1,0.1,0.1,0.2,0.2l-7.3,7.3c-0.2-0.2-0.3-0.4-0.5-0.6
	c-0.2-0.3-0.4-0.5-0.5-0.7l7-7C-420.1,276.7-419.8,277-419.3,277.3z M-441.2,270.6c-0.1-0.2-0.2-0.5-0.2-0.8
	c1.7-3.1,4.2-5.6,7.3-7.3c0.3-0.1,0.7,0,0.8,0.2c0.1,0.1,0.3,0.4,0.5,0.7l-7.8,7.8C-440.9,270.9-441.1,270.7-441.2,270.6z
	 M-438.7,272.5L-438.7,272.5l7.3-7.4c0.2,0.2,0.3,0.4,0.5,0.6c0.2,0.3,0.4,0.5,0.5,0.7l-7,7C-437.7,273.2-438.1,272.9-438.7,272.5z
	 M-436.5,276c-0.1-0.1-0.1-0.1,0-0.2l8.4-8.4l0,0h0.1h0.1l6.6,6.6c0.1,0.1,0.1,0.1,0,0.2l-8.4,8.4c-0.1,0.1-0.1,0.1-0.2,0
	L-436.5,276z"/>
</svg>
