<?xml version="1.0" encoding="utf-8"?>
<!-- Generator: Adobe Illustrator 19.1.0, SVG Export Plug-In . SVG Version: 6.00 Build 0)  -->
<svg version="1.1" id="Layer_1" xmlns="http://www.w3.org/2000/svg" xmlns:xlink="http://www.w3.org/1999/xlink" x="0px" y="0px"
	 viewBox="0 0 774 231" style="enable-background:new 0 0 774 231;" xml:space="preserve">
<style type="text/css">
	.st0{opacity:5.000000e-02;}
	.st1{fill:#D3B167;}
</style>
<g class="st0">
	<path class="st1" d="M67.8,43.6c39.7,0,56.7,20,55.2,57.7H51.6v9.9c0,29.9,5.3,50.1,29.9,50.1c18.7,0,31.4-11.9,36.9-31.4l4.6,0.8
		c-5.8,21.8-19,38.5-54.9,38.5c-45,0-65.3-25.8-65.3-62.5C2.8,62.9,32.6,43.6,67.8,43.6z M77.9,96.2V83.8c0-26.6-2-35.4-12.4-35.4
		c-8.9,0-13.7,8.6-13.7,35.4v12.4H77.9z"/>
	<path class="st1" d="M243.4,50.7h-18.2v-4.6h37.7v4.6h-13.2l-32.9,46.6l41.2,64.8h13.2v4.6h-84.5V162h18l-27.8-45.5L148,162h16.7
		v4.6H125V162h16.7l32.1-50.6l-38.5-60.7h-14.7v-4.6h85.5v4.6h-17.7l25,41.2L243.4,50.7z"/>
	<path class="st1" d="M329.2,66.1c5.6-12.7,15.2-22.5,34.9-22.5c28.3,0,45.8,20,45.8,63c0,43.3-17.7,62.5-52.1,62.5
		c-17.2,0-23.5-4.6-28.1-12.4v65.5h32.6v4.6h-93.6v-4.6h13.9V50.7h-13.4v-4.6h60V66.1z M329.7,89.4v46.3c0,13.7,5.3,26.1,16.4,26.1
		c12.4,0,14.9-14.9,14.9-50.1V98.5c0-35.7-3-44-11.6-44C339,54.5,329.7,67.4,329.7,89.4z"/>
	<path class="st1" d="M483.7,43.6c39.7,0,56.7,20,55.2,57.7h-71.3v9.9c0,29.9,5.3,50.1,29.9,50.1c18.7,0,31.4-11.9,36.9-31.4
		l4.6,0.8c-5.8,21.8-19,38.5-54.9,38.5c-45,0-65.3-25.8-65.3-62.5C418.7,62.9,448.6,43.6,483.7,43.6z M493.9,96.2V83.8
		c0-26.6-2-35.4-12.4-35.4c-8.9,0-13.7,8.6-13.7,35.4v12.4H493.9z"/>
	<path class="st1" d="M609,94.2V162h18v4.6H548V162h13.9V50.7H548v-4.6h61v24.3c4.6-18,18.7-26.8,33.9-26.8
		c14.9,0,26.8,7.8,26.8,27.1c0,14.4-7.6,24-21.3,24c-17,0-25-10.6-19.7-28.6h9.1c5.1-10.4,0-12.9-5.3-12.9
		C620.4,53.2,609,71.5,609,94.2z"/>
	<path class="st1" d="M685.9,50.7H672v-4.6h13.9V13.5l47.1-11.6v44.3h32.9v4.6h-32.9V136c0,14.9,2.3,23,11.1,23
		c12.1,0,19.7-11.1,22-28.3l4.3,0.5c-2.3,19.7-10.6,38-41.5,38c-25,0-43-7.3-43-38.7V50.7z"/>
</g>
</svg>
