<?xml version="1.0" encoding="utf-8"?>
<!-- Generator: Adobe Illustrator 19.1.0, SVG Export Plug-In . SVG Version: 6.00 Build 0)  -->
<svg version="1.1" id="Layer_1" xmlns="http://www.w3.org/2000/svg" xmlns:xlink="http://www.w3.org/1999/xlink" x="0px" y="0px"
	 viewBox="20 179.3 985.8 200" style="enable-background:new 20 179.3 985.8 200;" xml:space="preserve">
<style type="text/css">
	.st0{opacity:5.000000e-02;}
	.st1{fill:#D3B167;}
</style>
<g class="st0">
	<path class="st1" d="M73.1,310.2v13.1c0,32,5.8,46.3,25.3,46.3c22.8,0,32.6-19.2,35.3-32.8l4.5,0.5c-3.2,15.5-11.5,40.8-53.3,40.8
		c-38.6,0-60.1-21.5-60.1-60.6c0-42,25.5-63.6,66.8-63.6c30.5,0,45.8,13.1,45.8,31.8c0,15.5-8.2,23.6-20.8,23.6
		c-13.1,0-22.3-6.8-22.3-20.8c0-2.3,0.3-5.5,1.3-9h8.2c1.3-3.5,1.8-6.5,1.8-9c0-8.5-5-12-12-12C79.2,258.5,73.1,272.9,73.1,310.2z"
		/>
	<path class="st1" d="M210,254c39.3,0,56,19.7,54.6,57H194v9.7c0,29.5,5.3,49.6,29.5,49.6c18.6,0,31-11.8,36.5-31l4.5,0.8
		c-5.8,21.5-18.7,38.1-54.3,38.1c-44.6,0-64.6-25.5-64.6-61.8C145.7,272.9,175.3,254,210,254z M220,306v-12.3c0-26.3-2-35-12.3-35
		c-8.7,0-13.5,8.5-13.5,35V306H220z"/>
	<path class="st1" d="M332.9,304.1v67h17.8v4.5h-78.1v-4.5h13.7V261h-13.7v-4.5h60.4v24c4.5-17.8,18.6-26.5,33.6-26.5
		c14.7,0,26.5,7.8,26.5,26.8c0,14.2-7.6,23.8-21,23.8c-16.8,0-24.7-10.5-19.5-28.3h9c5-10.3,0-12.8-5.3-12.8
		C344.2,263.5,332.9,281.5,332.9,304.1z"/>
	<path class="st1" d="M412.1,261h-13.7v-4.5h13.7v-32.3l46.5-11.5v43.8h32.6v4.5h-32.6v84.3c0,14.7,2.3,22.8,11,22.8
		c12,0,19.5-11,21.8-28.1l4.2,0.5c-2.3,19.5-10.5,37.6-41,37.6c-24.7,0-42.6-7.3-42.6-38.3L412.1,261L412.1,261z"/>
	<path class="st1" d="M558.4,256.4v114.7h14v4.5h-74.3v-4.5h13.7V261h-14.7v-4.5C497.2,256.4,558.4,256.4,558.4,256.4z M536,192.6
		c15.5,0,24.7,7.8,24.7,23.1c0,13.3-7.3,23.6-25.3,23.6c-20.3,0-25-12.8-25-23.3C510.4,203.6,517.2,192.6,536,192.6z"/>
	<path class="st1" d="M634.8,216.4v40h82.4v114.7h14v4.5h-71.9v-4.5h11.3V261h-35.8v110.1h16v4.5h-76.4v-4.5h13.7V261h-14.5v-4.5
		h14.5V256c0-45.5,25.3-73.8,77.3-73.8c29.3,0,45.3,14.2,45.3,30.5c0,15-9.5,21.8-21.3,21.8c-13.5,0-20.8-7.5-20.8-17.8
		c0-3.7,0.8-7.8,1.5-10.8l10.3-2.7c4.5-12.3-6-16.8-17.6-16.8C643.3,186.4,634.8,197.4,634.8,216.4z"/>
	<path class="st1" d="M798.8,254c39.3,0,56,19.7,54.6,57h-70.6v9.7c0,29.5,5.3,49.6,29.5,49.6c18.6,0,31-11.8,36.5-31l4.5,0.8
		c-5.8,21.5-18.7,38.1-54.3,38.1c-44.6,0-64.6-25.5-64.6-61.8C734.4,272.9,764,254,798.8,254z M808.8,306v-12.3c0-26.3-2-35-12.3-35
		c-8.7,0-13.5,8.5-13.5,35V306H808.8z"/>
	<path class="st1" d="M944.7,358c-5.3,12.6-15,20-34.6,20c-27.8,0-45.3-19.7-45.3-61.8c0-42.3,17.5-62.3,49.6-62.3
		c15.5,0,24.5,4.5,29.1,12.3v-73.8h-15.2v-4.5h62.6v183.3h12.3v4.5h-55.6L944.7,358z M944.2,341.6V287c0-13.5-5.3-25.8-16.3-25.8
		c-12.3,0-14.7,14.7-14.7,49.6v13.1c0,35.3,3,43.6,13.7,43.6C934.2,367.4,944.2,360.3,944.2,341.6z"/>
</g>
</svg>
