<?xml version="1.0" encoding="utf-8"?>
<!-- Generator: Adobe Illustrator 19.1.0, SVG Export Plug-In . SVG Version: 6.00 Build 0)  -->
<svg version="1.1" id="Layer_1" xmlns="http://www.w3.org/2000/svg" xmlns:xlink="http://www.w3.org/1999/xlink" x="0px" y="0px"
	 viewBox="0 0 1122 190" style="enable-background:new 0 0 1122 190;" xml:space="preserve">
<style type="text/css">
	.st0{opacity:5.000000e-02;}
	.st1{fill:#D3B167;}
</style>
<g class="st0">
	<path class="st1" d="M79.8,170c-5.2,12.5-15,20-34.5,20C17.5,190,0,170.2,0,128.2C0,86,17.5,66,49.5,66c15.5,0,24.5,4.5,29,12.2
		V4.5H63.2V0h62.5v183H138v4.5H82.5L79.8,170z M79.2,153.5V99c0-13.5-5.2-25.8-16.2-25.8c-12.2,0-14.8,14.8-14.8,49.5v13
		c0,35.2,3,43.5,13.8,43.5C69.2,179.2,79.2,172.2,79.2,153.5z"/>
	<path class="st1" d="M210,66c39.2,0,56,19.8,54.5,57H194v9.7c0,29.5,5.2,49.5,29.5,49.5c18.5,0,31-11.8,36.5-31l4.5,0.8
		c-5.8,21.5-18.8,38-54.2,38c-44.5,0-64.5-25.5-64.5-61.8C145.7,85,175.2,66,210,66z M220,118v-12.2c0-26.2-2-35-12.2-35
		c-8.8,0-13.5,8.5-13.5,35V118H220z"/>
	<path class="st1" d="M355.7,170c-5.2,12.5-15,20-34.5,20c-27.8,0-45.2-19.8-45.2-61.8C276,86,293.5,66,325.5,66
		c15.5,0,24.5,4.5,29,12.2V4.5h-15.2V0h62.5v183H414v4.5h-55.5L355.7,170z M355.2,153.5V99c0-13.5-5.2-25.8-16.2-25.8
		c-12.2,0-14.8,14.8-14.8,49.5v13c0,35.2,3,43.5,13.8,43.5C345.2,179.2,355.2,172.2,355.2,153.5z"/>
	<path class="st1" d="M480.7,68.5V183h14v4.5h-74.2V183h13.8V73h-14.8v-4.5H480.7z M458.2,4.8c15.5,0,24.8,7.8,24.8,23
		c0,13.2-7.2,23.5-25.2,23.5c-20.2,0-25-12.8-25-23.2C432.7,15.8,439.5,4.8,458.2,4.8z"/>
	<path class="st1" d="M549.2,122.2v13c0,32,5.8,46.2,25.2,46.2c22.8,0,32.5-19.2,35.2-32.8l4.5,0.5C611,164.7,602.7,190,561,190
		c-38.5,0-60-21.5-60-60.5c0-42,25.5-63.5,66.8-63.5c30.5,0,45.8,13,45.8,31.8c0,15.5-8.2,23.5-20.8,23.5c-13,0-22.2-6.8-22.2-20.8
		c0-2.2,0.2-5.5,1.2-9h8.2c1.2-3.5,1.8-6.5,1.8-9c0-8.5-5-12-12-12C555.2,70.5,549.2,85,549.2,122.2z"/>
	<path class="st1" d="M687.7,128.7v-19.2c0-31.8-2.8-40-12.8-40c-4.5,0-11.7,2-11.7,10c0,2,0.5,4.5,1.5,7.2h6.2
		c1.2,3.2,2,6.5,2,11.2c0,11.8-9.5,19.5-22,19.5c-15.5,0-21.5-8.5-21.5-20.8c0-21,18.2-30.8,52.2-30.8c39.2,0,52.5,11,52.5,47.2V164
		c0,10.2,3,13,7.2,13c4.5,0,8.8-4.8,10-25.8l3.8,0.2c-1.2,30-10.5,38.5-32,38.5c-20.2,0-31.5-6.2-34.5-18.5
		c-4,12-11.2,18.5-28.7,18.5c-17.5,0-37-5.2-37-30.2c0-25.2,21.8-31,57.5-31H687.7z M687.7,156v-23.2H686
		c-10.5,0-15.5,7.5-15.5,22.8v4c0,18,1.7,20.5,6.5,20.5S687.7,172,687.7,156z"/>
	<path class="st1" d="M766.5,73h-13.8v-4.5h13.8V36.2L813,24.8v43.8h32.5V73H813v84.2c0,14.8,2.2,22.8,11,22.8c12,0,19.5-11,21.8-28
		l4.2,0.5c-2.2,19.5-10.5,37.5-41,37.5c-24.8,0-42.5-7.2-42.5-38.2V73z"/>
	<path class="st1" d="M918,66c39.2,0,56,19.8,54.5,57H902v9.7c0,29.5,5.2,49.5,29.5,49.5c18.5,0,31-11.8,36.5-31l4.5,0.8
		c-5.8,21.5-18.8,38-54.2,38c-44.5,0-64.5-25.5-64.5-61.8C853.7,85,883.2,66,918,66z M928,118v-12.2c0-26.2-2-35-12.2-35
		c-8.8,0-13.5,8.5-13.5,35V118H928z"/>
	<path class="st1" d="M1063.7,170c-5.2,12.5-15,20-34.5,20c-27.8,0-45.2-19.8-45.2-61.8c0-42.2,17.5-62.2,49.5-62.2
		c15.5,0,24.5,4.5,29,12.2V4.5h-15.2V0h62.5v183h12.2v4.5h-55.5L1063.7,170z M1063.2,153.5V99c0-13.5-5.2-25.8-16.2-25.8
		c-12.2,0-14.8,14.8-14.8,49.5v13c0,35.2,3,43.5,13.8,43.5C1053.2,179.2,1063.2,172.2,1063.2,153.5z"/>
</g>
</svg>
