<?xml version="1.0" encoding="utf-8"?>
<!-- Generator: Adobe Illustrator 19.1.0, SVG Export Plug-In . SVG Version: 6.00 Build 0)  -->
<svg version="1.1" id="Layer_1" xmlns="http://www.w3.org/2000/svg" xmlns:xlink="http://www.w3.org/1999/xlink" x="0px" y="0px"
	 viewBox="0 0 893.1 190" style="enable-background:new 0 0 893.1 190;" xml:space="preserve">
<style type="text/css">
	.st0{opacity:5.000000e-02;}
	.st1{fill:#D3B167;}
</style>
<g class="st0">
	<path class="st1" d="M60.2,116v67H78v4.5H0V183h13.8V73H0v-4.5h60.2v24C64.8,74.8,78.8,66,93.8,66c14.8,0,26.5,7.8,26.5,26.8
		c0,14.2-7.5,23.8-21,23.8c-16.8,0-24.8-10.5-19.5-28.2h9c5-10.2,0-12.8-5.2-12.8C71.5,75.5,60.2,93.5,60.2,116z"/>
	<path class="st1" d="M188,66c39.2,0,56,19.8,54.5,57H172v9.7c0,29.5,5.2,49.5,29.5,49.5c18.5,0,31-11.8,36.5-31l4.5,0.8
		c-5.8,21.5-18.8,38-54.2,38c-44.5,0-64.5-25.5-64.5-61.8C123.8,85,153.3,66,188,66z M198,118v-12.2c0-26.2-2-35-12.2-35
		c-8.8,0-13.5,8.5-13.5,35V118H198z"/>
	<path class="st1" d="M311.7,0v183h14v4.5h-74.2V183h13.8V4.5h-14.8V0H311.7z"/>
	<path class="st1" d="M390.7,68.5V183h14v4.5h-74.2V183h13.8V73h-14.8v-4.5H390.7z M368.2,4.8c15.5,0,24.8,7.8,24.8,23
		c0,13.2-7.2,23.5-25.2,23.5c-20.2,0-25-12.8-25-23.2C342.7,15.8,349.5,4.8,368.2,4.8z"/>
	<path class="st1" d="M477,128.7v-19.2c0-31.8-2.8-40-12.8-40c-4.5,0-11.8,2-11.8,10c0,2,0.5,4.5,1.5,7.2h6.2c1.2,3.2,2,6.5,2,11.2
		c0,11.8-9.5,19.5-22,19.5c-15.5,0-21.5-8.5-21.5-20.8c0-21,18.2-30.8,52.2-30.8c39.2,0,52.5,11,52.5,47.2V164c0,10.2,3,13,7.2,13
		c4.5,0,8.8-4.8,10-25.8l3.8,0.2c-1.2,30-10.5,38.5-32,38.5c-20.2,0-31.5-6.2-34.5-18.5c-4,12-11.2,18.5-28.8,18.5s-37-5.2-37-30.2
		c0-25.2,21.8-31,57.5-31H477z M477,156v-23.2h-1.8c-10.5,0-15.5,7.5-15.5,22.8v4c0,18,1.8,20.5,6.5,20.5S477,172,477,156z"/>
	<path class="st1" d="M607.2,87.5C612.7,75,621.7,66,640.7,66c28.5,0,45.7,19.5,45.7,62.2C686.5,171,669,190,635,190
		c-17.2,0-25.7-4.8-29.2-17.2l-1.8,14.8h-57V183h13.8V4.5H547V0h60.2V87.5z M607.2,110.5V157c0,13.5,5.8,25.8,16.2,25.8
		c12.2,0,14.8-14.8,14.8-49.5v-13c0-35.2-3-43.5-11.5-43.5C616.5,76.8,607.2,88.8,607.2,110.5z"/>
	<path class="st1" d="M754.2,0v183h14v4.5H694V183h13.8V4.5H693V0H754.2z"/>
	<path class="st1" d="M838.5,66c39.2,0,56,19.8,54.5,57h-70.5v9.7c0,29.5,5.2,49.5,29.5,49.5c18.5,0,31-11.8,36.5-31l4.5,0.8
		c-5.8,21.5-18.8,38-54.2,38c-44.5,0-64.5-25.5-64.5-61.8C774.2,85,803.7,66,838.5,66z M848.5,118v-12.2c0-26.2-2-35-12.2-35
		c-8.8,0-13.5,8.5-13.5,35V118H848.5z"/>
</g>
</svg>
