<?xml version="1.0" encoding="utf-8"?>
<!-- Generator: Adobe Illustrator 19.1.0, SVG Export Plug-In . SVG Version: 6.00 Build 0)  -->
<svg version="1.1" id="Layer_1" xmlns="http://www.w3.org/2000/svg" xmlns:xlink="http://www.w3.org/1999/xlink" x="0px" y="0px"
	 viewBox="-176.5 159.8 1270.6 242.2" style="enable-background:new -176.5 159.8 1270.6 242.2;" xml:space="preserve">
<style type="text/css">
	.st0{opacity:0.15;}
	.st1{fill:#D3B167;}
</style>
<g class="st0">
	<path class="st1" d="M-112.2,221c39.2,0,56,19.8,54.5,57h-70.5v9.8c0,29.5,5.2,49.5,29.5,49.5c18.5,0,31-11.8,36.5-31l4.5,0.8
		c-5.8,21.5-18.8,38-54.2,38c-44.5,0-64.5-25.5-64.5-61.8C-176.5,240-147,221-112.2,221z M-102.2,273v-12.2c0-26.2-2-35-12.2-35
		c-8.8,0-13.5,8.5-13.5,35V273H-102.2z"/>
	<path class="st1" d="M61.3,228h-18v-4.5h37.2v4.5h-13l-32.5,46l40.8,64h13v4.5H5.3V338h17.8l-27.5-45l-28.5,45h16.5v4.5h-39.2V338
		h16.5l31.8-50l-38-60h-14.5v-4.5h84.5v4.5H7.1l24.8,40.8L61.3,228z"/>
	<path class="st1" d="M151,243.2c5.5-12.5,15-22.2,34.5-22.2c28,0,45.2,19.8,45.2,62.2c0,42.8-17.5,61.8-51.5,61.8
		c-17,0-23.2-4.5-27.8-12.2v64.8h32.2v4.5H91.3v-4.5H105V228H91.8v-4.5H151V243.2z M151.5,266.2V312c0,13.5,5.2,25.8,16.2,25.8
		c12.2,0,14.8-14.8,14.8-49.5v-13c0-35.2-3-43.5-11.5-43.5C160.8,231.8,151.5,244.5,151.5,266.2z"/>
	<path class="st1" d="M303.8,221c39.2,0,56,19.8,54.5,57h-70.5v9.8c0,29.5,5.2,49.5,29.5,49.5c18.5,0,31-11.8,36.5-31l4.5,0.8
		c-5.8,21.5-18.8,38-54.2,38c-44.5,0-64.5-25.5-64.5-61.8C239.5,240,269,221,303.8,221z M313.8,273v-12.2c0-26.2-2-35-12.2-35
		c-8.8,0-13.5,8.5-13.5,35V273H313.8z"/>
	<path class="st1" d="M427.5,271v67h17.8v4.5h-78V338H381V228h-13.8v-4.5h60.2v24C432,229.8,446,221,461,221
		c14.8,0,26.5,7.8,26.5,26.8c0,14.2-7.5,23.8-21,23.8c-16.8,0-24.8-10.5-19.5-28.2h9c5-10.2,0-12.8-5.2-12.8
		C438.8,230.5,427.5,248.5,427.5,271z"/>
	<path class="st1" d="M551.3,223.5V338h14v4.5H491V338h13.8V228H490v-4.5H551.3z M528.8,159.8c15.5,0,24.8,7.8,24.8,23
		c0,13.2-7.2,23.5-25.2,23.5c-20.2,0-25-12.8-25-23.2C503.3,170.8,510,159.8,528.8,159.8z"/>
	<path class="st1" d="M635.8,221c39.2,0,56,19.8,54.5,57h-70.5v9.8c0,29.5,5.2,49.5,29.5,49.5c18.5,0,31-11.8,36.5-31l4.5,0.8
		c-5.8,21.5-18.8,38-54.2,38c-44.5,0-64.5-25.5-64.5-61.8C571.5,240,601,221,635.8,221z M645.8,273v-12.2c0-26.2-2-35-12.2-35
		c-8.8,0-13.5,8.5-13.5,35V273H645.8z"/>
	<path class="st1" d="M760,223.5v23c4.2-12.5,12.5-25.5,37.2-25.5c23.2,0,38.8,11.5,38.8,41.8V338h14v4.5h-70.8V338h10.2v-81.2
		c0-21.2-3-23.8-9.2-23.8c-10.5,0-20.2,15.8-20.2,36v69h10.8v4.5h-71V338h13.8V228h-13.8v-4.5H760z"/>
	<path class="st1" d="M902.8,277.2v13c0,32,5.8,46.2,25.2,46.2c22.8,0,32.5-19.2,35.2-32.8l4.5,0.5c-3.2,15.5-11.5,40.8-53.2,40.8
		c-38.5,0-60-21.5-60-60.5c0-42,25.5-63.5,66.8-63.5c30.5,0,45.8,13,45.8,31.8c0,15.5-8.2,23.5-20.8,23.5c-13,0-22.2-6.8-22.2-20.8
		c0-2.2,0.2-5.5,1.2-9h8.2c1.2-3.5,1.8-6.5,1.8-9c0-8.5-5-12-12-12C908.8,225.5,902.8,240,902.8,277.2z"/>
	<path class="st1" d="M1039.5,221c39.2,0,56,19.8,54.5,57h-70.5v9.8c0,29.5,5.2,49.5,29.5,49.5c18.5,0,31-11.8,36.5-31l4.5,0.8
		c-5.8,21.5-18.8,38-54.2,38c-44.5,0-64.5-25.5-64.5-61.8C975.3,240,1004.8,221,1039.5,221z M1049.5,273v-12.2c0-26.2-2-35-12.2-35
		c-8.8,0-13.5,8.5-13.5,35V273H1049.5z"/>
</g>
</svg>
