<?xml version="1.0" encoding="utf-8"?>
<!-- Generator: Adobe Illustrator 19.1.0, SVG Export Plug-In . SVG Version: 6.00 Build 0)  -->
<svg version="1.1" id="Layer_1" xmlns="http://www.w3.org/2000/svg" xmlns:xlink="http://www.w3.org/1999/xlink" x="0px" y="0px"
	 viewBox="133 229.6 1158.2 195.9" style="enable-background:new 133 229.6 1158.2 195.9;" xml:space="preserve">
<style type="text/css">
	.st0{opacity:0.18;}
	.st1{fill:#D3B167;}
</style>
<g class="st0">
	<path class="st1" d="M133,380.6h3c9.2,30.5,24.5,39.2,45,39.2c18.5,0,25.5-6.8,25.5-16.2c0-11.2-12.2-13.8-31.2-19
		c-20.1-5.5-42.3-13.3-42.3-41c0-25.5,17.5-42.2,44-42.2c11,0,18.5,2.8,25.2,5.8c3,1.2,4,2,7,2c3.8,0,5.5-2,8.8-8.2h2.8v38.2h-3
		c-9-23.1-21.8-32.6-39.6-32.6c-16.4,0-23.2,6.8-23.2,14.5c0,11.5,15,14.2,31.5,18.8c19.8,5.2,41.8,13.2,41.8,42.7
		c0,28.5-18.5,42.8-46.8,42.8c-12,0-20.5-2.5-30-7.2c-1.5-1-3.8-2-4.8-2c-3.2,0-6.8,2.2-10.8,9.2H133V380.6z"/>
	<path class="st1" d="M323,422.8l-2.8-18.2c-4.8,11.8-12.8,20.8-35.2,20.8c-23.2,0-38.8-11.5-38.8-41.8v-75.2h-14v-4.5h60.5v85.7
		c0,21.2,3,24.5,9.2,24.5c10,0,17.8-10.2,17.8-29.2v-76.5h-11.5v-4.5h58v114.5H380v4.5L323,422.8L323,422.8z"/>
	<path class="st1" d="M434.5,357.6v13c0,32,5.8,46.2,25.2,46.2c22.8,0,32.5-19.2,35.2-32.8l4.5,0.5c-3.2,15.5-11.5,40.8-53.2,40.8
		c-38.5,0-60-21.5-60-60.5c0-42,25.5-63.5,66.8-63.5c30.5,0,45.8,13,45.8,31.8c0,15.5-8.2,23.5-20.8,23.5c-13,0-22.2-6.8-22.2-20.8
		c0-2.2,0.2-5.5,1.2-9h8.2c1.2-3.5,1.8-6.5,1.8-9c0-8.5-5-12-12-12C440.5,305.8,434.5,320.4,434.5,357.6z"/>
	<path class="st1" d="M555.2,357.6v13c0,32,5.8,46.2,25.2,46.2c22.8,0,32.5-19.2,35.2-32.8l4.5,0.5c-3.2,15.5-11.5,40.8-53.2,40.8
		c-38.5,0-60-21.5-60-60.5c0-42,25.5-63.5,66.8-63.5c30.5,0,45.8,13,45.8,31.8c0,15.5-8.2,23.5-20.8,23.5c-13,0-22.2-6.8-22.2-20.8
		c0-2.2,0.2-5.5,1.2-9h8.2c1.2-3.5,1.8-6.5,1.8-9c0-8.5-5-12-12-12C561.2,305.8,555.2,320.4,555.2,357.6z"/>
	<path class="st1" d="M692,301.4c39.2,0,56,19.8,54.5,57H676v9.7c0,29.5,5.2,49.5,29.5,49.5c18.5,0,31-11.8,36.5-31l4.5,0.8
		c-5.8,21.5-18.8,38-54.2,38c-44.5,0-64.5-25.5-64.5-61.8C627.7,320.4,657.2,301.4,692,301.4z M702,353.4v-12.2c0-26.2-2-35-12.2-35
		c-8.8,0-13.5,8.5-13.5,35v12.2H702z"/>
	<path class="st1" d="M758.7,380.6h3c9.2,30.5,24.5,39.2,45,39.2c18.5,0,25.5-6.8,25.5-16.2c0-11.2-12.2-13.8-31.2-19
		c-20-5.5-42.2-13.2-42.2-41c0-25.5,17.5-42.2,44-42.2c11,0,18.5,2.8,25.2,5.8c3,1.2,4,2,7,2c3.8,0,5.5-2,8.8-8.2h2.8v38.2h-3
		c-9-23-21.8-32.5-39.5-32.5c-16.5,0-23.2,6.8-23.2,14.5c0,11.5,15,14.2,31.5,18.8c19.6,5.1,41.6,13.1,41.6,42.6
		c0,28.5-18.5,42.8-46.8,42.8c-12,0-20.5-2.5-30-7.2c-1.5-1-3.8-2-4.8-2c-3.2,0-6.8,2.2-10.8,9.2h-3L758.7,380.6L758.7,380.6z"/>
	<path class="st1" d="M867.2,380.6h3c9.2,30.5,24.5,39.2,45,39.2c18.5,0,25.5-6.8,25.5-16.2c0-11.2-12.2-13.8-31.2-19
		c-20-5.5-42.2-13.2-42.2-41c0-25.5,17.5-42.2,44-42.2c11,0,18.5,2.8,25.2,5.8c3,1.2,4,2,7,2c3.8,0,5.5-2,8.8-8.2h2.8v38.2h-3
		c-9-23-21.8-32.5-39.5-32.5c-16.5,0-23.2,6.8-23.2,14.5c0,11.5,15,14.2,31.5,18.8c19.8,5.2,41.8,13.2,41.8,42.7
		c0,28.5-18.5,42.8-46.8,42.8c-12,0-20.5-2.5-30-7.2c-1.5-1-3.8-2-4.8-2c-3.2,0-6.8,2.2-10.8,9.2h-3L867.2,380.6L867.2,380.6z"/>
	<path class="st1" d="M1030.2,263.8v40h33v4.5h-33v110h30.5v4.5H970v-4.5h13.8v-110h-14.5v-4.5h14.5v-1c0-45.5,14.8-73.2,59.8-73.2
		c31.2,0,39.8,15.8,39.8,28c0,15-9,21.8-20.8,21.8c-13.5,0-20-7.5-20-17.8c0-3.8,0.8-7.8,1.5-10.8h9.5c4.5-12.2-1-17-7.8-17
		C1032.2,233.8,1030.2,244.8,1030.2,263.8z"/>
	<path class="st1" d="M1155,422.8l-2.8-18.2c-4.8,11.8-12.8,20.8-35.2,20.8c-23.2,0-38.8-11.5-38.8-41.8v-75.2h-14v-4.5h60.5v85.7
		c0,21.2,3,24.5,9.2,24.5c10,0,17.8-10.2,17.8-29.2v-76.5h-11.5v-4.5h58v114.5h13.8v4.5L1155,422.8L1155,422.8z"/>
	<path class="st1" d="M1277.2,235.4v183h14v4.5H1217v-4.5h13.8V239.8H1216v-4.4H1277.2z"/>
</g>
</svg>
