<?xml version="1.0" encoding="utf-8"?>
<!-- Generator: Adobe Illustrator 19.1.0, SVG Export Plug-In . SVG Version: 6.00 Build 0)  -->
<svg version="1.1" id="Layer_1" xmlns="http://www.w3.org/2000/svg" xmlns:xlink="http://www.w3.org/1999/xlink" x="0px" y="0px"
	 viewBox="158.6 150.6 1270.5 242.3" style="enable-background:new 158.6 150.6 1270.5 242.3;" xml:space="preserve">
<style type="text/css">
	.st0{opacity:0.15;}
	.st1{fill:#D3B167;}
</style>
<g class="st0">
	<path class="st1" d="M222.8,211.8c39.2,0,56,19.8,54.5,57h-70.5v9.8c0,29.5,5.2,49.5,29.5,49.5c18.5,0,31-11.8,36.5-31l4.5,0.8
		c-5.8,21.5-18.8,38-54.2,38c-44.5,0-64.5-25.5-64.5-61.8C158.5,230.8,188,211.8,222.8,211.8z M232.8,263.8v-12.2
		c0-26.2-2-35-12.2-35c-8.8,0-13.5,8.5-13.5,35v12.2H232.8z"/>
	<path class="st1" d="M396.3,218.8h-18v-4.5h37.2v4.5h-13l-32.5,46l40.8,64h13v4.5h-83.5v-4.5h17.8l-27.5-45l-28.5,45h16.5v4.5
		h-39.2v-4.5h16.5l31.8-50l-38-60h-14.5v-4.5h84.5v4.5h-17.6l24.8,40.8L396.3,218.8z"/>
	<path class="st1" d="M486,234c5.5-12.5,15-22.2,34.5-22.2c28,0,45.2,19.8,45.2,62.2c0,42.8-17.5,61.8-51.5,61.8
		c-17,0-23.2-4.5-27.8-12.2v64.8h32.2v4.5h-92.3v-4.5H440V218.8h-13.2v-4.5H486V234z M486.5,257v45.8c0,13.5,5.2,25.8,16.2,25.8
		c12.2,0,14.8-14.8,14.8-49.5v-13c0-35.2-3-43.5-11.5-43.5C495.8,222.6,486.5,235.3,486.5,257z"/>
	<path class="st1" d="M638.8,211.8c39.2,0,56,19.8,54.5,57h-70.5v9.8c0,29.5,5.2,49.5,29.5,49.5c18.5,0,31-11.8,36.5-31l4.5,0.8
		c-5.8,21.5-18.8,38-54.2,38c-44.5,0-64.5-25.5-64.5-61.8C574.5,230.8,604,211.8,638.8,211.8z M648.8,263.8v-12.2
		c0-26.2-2-35-12.2-35c-8.8,0-13.5,8.5-13.5,35v12.2H648.8z"/>
	<path class="st1" d="M762.5,261.8v67h17.8v4.5h-78v-4.5H716v-110h-13.8v-4.5h60.2v24c4.6-17.7,18.6-26.5,33.6-26.5
		c14.8,0,26.5,7.8,26.5,26.8c0,14.2-7.5,23.8-21,23.8c-16.8,0-24.8-10.5-19.5-28.2h9c5-10.2,0-12.8-5.2-12.8
		C773.8,221.3,762.5,239.3,762.5,261.8z"/>
	<path class="st1" d="M886.3,214.3v114.5h14v4.5H826v-4.5h13.8v-110H825v-4.5H886.3z M863.8,150.6c15.5,0,24.8,7.8,24.8,23
		c0,13.2-7.2,23.5-25.2,23.5c-20.2,0-25-12.8-25-23.2C838.3,161.6,845,150.6,863.8,150.6z"/>
	<path class="st1" d="M970.8,211.8c39.2,0,56,19.8,54.5,57h-70.5v9.8c0,29.5,5.2,49.5,29.5,49.5c18.5,0,31-11.8,36.5-31l4.5,0.8
		c-5.8,21.5-18.8,38-54.2,38c-44.5,0-64.5-25.5-64.5-61.8C906.5,230.8,936,211.8,970.8,211.8z M980.8,263.8v-12.2
		c0-26.2-2-35-12.2-35c-8.8,0-13.5,8.5-13.5,35v12.2H980.8z"/>
	<path class="st1" d="M1095,214.3v23c4.2-12.5,12.5-25.5,37.2-25.5c23.2,0,38.8,11.5,38.8,41.8v75.2h14v4.5h-70.8v-4.5h10.2v-81.2
		c0-21.2-3-23.8-9.2-23.8c-10.5,0-20.2,15.8-20.2,36v69h10.8v4.5h-71v-4.5h13.8v-110h-13.8v-4.5H1095z"/>
	<path class="st1" d="M1237.8,268v13c0,32,5.8,46.2,25.2,46.2c22.8,0,32.5-19.2,35.2-32.8l4.5,0.5c-3.2,15.5-11.5,40.8-53.2,40.8
		c-38.5,0-60-21.5-60-60.5c0-42,25.5-63.5,66.8-63.5c30.5,0,45.8,13,45.8,31.8c0,15.5-8.2,23.5-20.8,23.5c-13,0-22.2-6.8-22.2-20.8
		c0-2.2,0.2-5.5,1.2-9h8.2c1.2-3.5,1.8-6.5,1.8-9c0-8.5-5-12-12-12C1243.8,216.3,1237.8,230.8,1237.8,268z"/>
	<path class="st1" d="M1374.5,211.8c39.2,0,56,19.8,54.5,57h-70.5v9.8c0,29.5,5.2,49.5,29.5,49.5c18.5,0,31-11.8,36.5-31l4.5,0.8
		c-5.8,21.5-18.8,38-54.2,38c-44.5,0-64.5-25.5-64.5-61.8C1310.3,230.8,1339.8,211.8,1374.5,211.8z M1384.5,263.8v-12.2
		c0-26.2-2-35-12.2-35c-8.8,0-13.5,8.5-13.5,35v12.2H1384.5z"/>
</g>
</svg>
