<?xml version="1.0" encoding="utf-8"?>
<!-- Generator: Adobe Illustrator 19.1.0, SVG Export Plug-In . SVG Version: 6.00 Build 0)  -->
<svg version="1.1" id="Layer_1" xmlns="http://www.w3.org/2000/svg" xmlns:xlink="http://www.w3.org/1999/xlink" x="0px" y="0px"
	 viewBox="-15 236 893.1 190" style="enable-background:new -15 236 893.1 190;" xml:space="preserve">
<style type="text/css">
	.st0{opacity:0.18;}
	.st1{fill:#D3B167;}
</style>
<g class="st0">
	<path class="st1" d="M45.2,352v67H63v4.5h-78V419h13.8V309H-15v-4.5h60.2v24c4.6-17.7,18.6-26.5,33.6-26.5
		c14.8,0,26.5,7.8,26.5,26.8c0,14.2-7.5,23.8-21,23.8c-16.8,0-24.8-10.5-19.5-28.2h9c5-10.2,0-12.8-5.2-12.8
		C56.5,311.5,45.2,329.5,45.2,352z"/>
	<path class="st1" d="M173,302c39.2,0,56,19.8,54.5,57H157v9.7c0,29.5,5.2,49.5,29.5,49.5c18.5,0,31-11.8,36.5-31l4.5,0.8
		c-5.8,21.5-18.8,38-54.2,38c-44.5,0-64.5-25.5-64.5-61.8C108.8,321,138.3,302,173,302z M183,354v-12.2c0-26.2-2-35-12.2-35
		c-8.8,0-13.5,8.5-13.5,35V354H183z"/>
	<path class="st1" d="M296.7,236v183h14v4.5h-74.2V419h13.8V240.5h-14.8V236H296.7z"/>
	<path class="st1" d="M375.7,304.5V419h14v4.5h-74.2V419h13.8V309h-14.8v-4.5H375.7z M353.2,240.8c15.5,0,24.8,7.8,24.8,23
		c0,13.2-7.2,23.5-25.2,23.5c-20.2,0-25-12.8-25-23.2C327.7,251.8,334.5,240.8,353.2,240.8z"/>
	<path class="st1" d="M462,364.7v-19.2c0-31.8-2.8-40-12.8-40c-4.5,0-11.8,2-11.8,10c0,2,0.5,4.5,1.5,7.2h6.2c1.2,3.2,2,6.5,2,11.2
		c0,11.8-9.5,19.5-22,19.5c-15.5,0-21.5-8.5-21.5-20.8c0-21,18.2-30.8,52.2-30.8c39.2,0,52.5,11,52.5,47.2v51c0,10.2,3,13,7.2,13
		c4.5,0,8.8-4.8,10-25.8l3.8,0.2c-1.2,30-10.5,38.5-32,38.5c-20.2,0-31.5-6.2-34.5-18.5c-4,12-11.2,18.5-28.8,18.5s-37-5.2-37-30.2
		c0-25.2,21.8-31,57.5-31L462,364.7L462,364.7z M462,392v-23.2h-1.8c-10.5,0-15.5,7.5-15.5,22.8v4c0,18,1.8,20.5,6.5,20.5
		S462,408,462,392z"/>
	<path class="st1" d="M592.2,323.5c5.5-12.5,14.5-21.5,33.5-21.5c28.5,0,45.7,19.5,45.7,62.2C671.5,407,654,426,620,426
		c-17.2,0-25.7-4.8-29.2-17.2l-1.8,14.8h-57V419h13.8V240.5H532V236h60.2V323.5z M592.2,346.5V393c0,13.5,5.8,25.8,16.2,25.8
		c12.2,0,14.8-14.8,14.8-49.5v-13c0-35.2-3-43.5-11.5-43.5C601.5,312.8,592.2,324.8,592.2,346.5z"/>
	<path class="st1" d="M739.2,236v183h14v4.5H679V419h13.8V240.5H678V236H739.2z"/>
	<path class="st1" d="M823.5,302c39.2,0,56,19.8,54.5,57h-70.5v9.7c0,29.5,5.2,49.5,29.5,49.5c18.5,0,31-11.8,36.5-31l4.5,0.8
		c-5.8,21.5-18.8,38-54.2,38c-44.5,0-64.5-25.5-64.5-61.8C759.2,321,788.7,302,823.5,302z M833.5,354v-12.2c0-26.2-2-35-12.2-35
		c-8.8,0-13.5,8.5-13.5,35V354H833.5z"/>
</g>
</svg>
