<?xml version="1.0" encoding="utf-8"?>
<!-- Generator: Adobe Illustrator 19.1.0, SVG Export Plug-In . SVG Version: 6.00 Build 0)  -->
<svg version="1.1" id="Layer_1" xmlns="http://www.w3.org/2000/svg" xmlns:xlink="http://www.w3.org/1999/xlink" x="0px" y="0px"
	 viewBox="-147 186 664.7 190" style="enable-background:new -147 186 664.7 190;" xml:space="preserve">
<style type="text/css">
	.st0{opacity:0.15;}
	.st1{fill:#D3B167;}
</style>
<g class="st0">
	<path class="st1" d="M-82.2,314.7v-19.2c0-31.8-2.8-40-12.8-40c-4.5,0-11.8,2-11.8,10c0,2,0.5,4.5,1.5,7.2h6.3
		c1.2,3.2,2,6.5,2,11.2c0,11.8-9.5,19.5-22,19.5c-15.5,0-21.5-8.5-21.5-20.8c0-21,18.2-30.8,52.2-30.8c39.2,0,52.5,11,52.5,47.2v51
		c0,10.2,3,13,7.2,13c4.5,0,8.8-4.8,10-25.8l3.8,0.2c-1.2,30-10.5,38.5-32,38.5c-20.2,0-31.5-6.2-34.5-18.5
		c-4,12-11.2,18.5-28.8,18.5s-37-5.2-37-30.2c0-25.2,21.8-31,57.5-31H-82.2z M-82.2,342v-23.2H-84c-10.5,0-15.5,7.5-15.5,22.8v4
		c0,18,1.8,20.5,6.5,20.5S-82.2,358-82.2,342z"/>
	<path class="st1" d="M48,273.5C53.5,261,62.5,252,81.5,252c28.5,0,45.8,19.5,45.8,62.2c0,42.8-17.5,61.8-51.5,61.8
		c-17.2,0-25.8-4.8-29.2-17.2l-1.8,14.8h-57V369H1.6V190.5h-13.8V186H48V273.5z M48,296.5V343c0,13.5,5.8,25.8,16.2,25.8
		c12.2,0,14.8-14.8,14.8-49.5v-13c0-35.2-3-43.5-11.5-43.5C57.2,262.8,48,274.8,48,296.5z"/>
	<path class="st1" d="M201.5,252c42,0,62,19.8,62,60.2c0,41-19,63.8-63.5,63.8c-42,0-63.2-22.5-63.2-61.5
		C136.7,273.5,161.2,252,201.5,252z M215.5,303c0-27-0.8-46.5-14.8-46.5c-15.2,0-16,19.5-16,47.8v19.5c0,29,0.5,47.8,15.8,47.8
		c14.2,0,15-14.8,15-47.2V303z"/>
	<path class="st1" d="M359.7,373.5l-2.8-18.2c-4.8,11.8-12.8,20.8-35.2,20.8c-23.2,0-38.7-11.5-38.7-41.8V259h-14v-4.5h60.5v85.7
		c0,21.2,3,24.5,9.2,24.5c10,0,17.8-10.2,17.8-29.2V259H345v-4.5h58V369h13.8v4.5H359.7z"/>
	<path class="st1" d="M434.2,259h-13.8v-4.5h13.8v-32.3l46.5-11.5v43.8h32.5v4.5h-32.5v84.2c0,14.8,2.2,22.8,11,22.8
		c12,0,19.5-11,21.8-28l4.2,0.5c-2.2,19.5-10.5,37.5-41,37.5c-24.8,0-42.5-7.2-42.5-38.2V259z"/>
</g>
</svg>
