<?xml version="1.0" encoding="utf-8"?>
<!-- Generator: Adobe Illustrator 19.1.0, SVG Export Plug-In . SVG Version: 6.00 Build 0)  -->
<svg version="1.1" id="Layer_1" xmlns="http://www.w3.org/2000/svg" xmlns:xlink="http://www.w3.org/1999/xlink" x="0px" y="0px"
	 viewBox="104 222 1122 190" style="enable-background:new 104 222 1122 190;" xml:space="preserve">
<style type="text/css">
	.st0{opacity:0.18;}
	.st1{fill:#D3B167;}
</style>
<g class="st0">
	<path class="st1" d="M183.8,392c-5.2,12.5-15,20-34.5,20c-27.8,0-45.3-19.8-45.3-61.8c0-42.2,17.5-62.2,49.5-62.2
		c15.5,0,24.5,4.5,29,12.2v-73.7h-15.3V222h62.5v183H242v4.5h-55.5L183.8,392z M183.2,375.5V321c0-13.5-5.2-25.8-16.2-25.8
		c-12.2,0-14.8,14.8-14.8,49.5v13c0,35.2,3,43.5,13.8,43.5C173.2,401.2,183.2,394.2,183.2,375.5z"/>
	<path class="st1" d="M314,288c39.2,0,56,19.8,54.5,57H298v9.7c0,29.5,5.2,49.5,29.5,49.5c18.5,0,31-11.8,36.5-31l4.5,0.8
		c-5.8,21.5-18.8,38-54.2,38c-44.5,0-64.5-25.5-64.5-61.8C249.7,307,279.2,288,314,288z M324,340v-12.2c0-26.2-2-35-12.2-35
		c-8.8,0-13.5,8.5-13.5,35V340H324z"/>
	<path class="st1" d="M459.7,392c-5.2,12.5-15,20-34.5,20c-27.8,0-45.2-19.8-45.2-61.8c0-42.2,17.5-62.2,49.5-62.2
		c15.5,0,24.5,4.5,29,12.2v-73.7h-15.2V222h62.5v183H518v4.5h-55.5L459.7,392z M459.2,375.5V321c0-13.5-5.2-25.8-16.2-25.8
		c-12.2,0-14.8,14.8-14.8,49.5v13c0,35.2,3,43.5,13.8,43.5C449.2,401.2,459.2,394.2,459.2,375.5z"/>
	<path class="st1" d="M584.7,290.5V405h14v4.5h-74.2V405h13.8V295h-14.8v-4.5H584.7z M562.2,226.8c15.5,0,24.8,7.8,24.8,23
		c0,13.2-7.2,23.5-25.2,23.5c-20.2,0-25-12.8-25-23.2C536.7,237.8,543.5,226.8,562.2,226.8z"/>
	<path class="st1" d="M653.2,344.2v13c0,32,5.8,46.2,25.2,46.2c22.8,0,32.5-19.2,35.2-32.8l4.5,0.5C715,386.7,706.7,412,665,412
		c-38.5,0-60-21.5-60-60.5c0-42,25.5-63.5,66.8-63.5c30.5,0,45.8,13,45.8,31.8c0,15.5-8.2,23.5-20.8,23.5c-13,0-22.2-6.8-22.2-20.8
		c0-2.2,0.2-5.5,1.2-9h8.2c1.2-3.5,1.8-6.5,1.8-9c0-8.5-5-12-12-12C659.2,292.5,653.2,307,653.2,344.2z"/>
	<path class="st1" d="M791.7,350.7v-19.2c0-31.8-2.8-40-12.8-40c-4.5,0-11.7,2-11.7,10c0,2,0.5,4.5,1.5,7.2h6.2
		c1.2,3.2,2,6.5,2,11.2c0,11.8-9.5,19.5-22,19.5c-15.5,0-21.5-8.5-21.5-20.8c0-21,18.2-30.8,52.2-30.8c39.2,0,52.5,11,52.5,47.2v51
		c0,10.2,3,13,7.2,13c4.5,0,8.8-4.8,10-25.8l3.8,0.2c-1.2,30-10.5,38.5-32,38.5c-20.2,0-31.5-6.2-34.5-18.5
		c-4,12-11.2,18.5-28.7,18.5s-37-5.2-37-30.2c0-25.2,21.8-31,57.5-31L791.7,350.7L791.7,350.7z M791.7,378v-23.2H790
		c-10.5,0-15.5,7.5-15.5,22.8v4c0,18,1.7,20.5,6.5,20.5S791.7,394,791.7,378z"/>
	<path class="st1" d="M870.5,295h-13.8v-4.5h13.8v-32.3l46.5-11.4v43.8h32.5v4.4H917v84.2c0,14.8,2.2,22.8,11,22.8
		c12,0,19.5-11,21.8-28l4.2,0.5c-2.2,19.5-10.5,37.5-41,37.5c-24.8,0-42.5-7.2-42.5-38.2V295z"/>
	<path class="st1" d="M1022,288c39.2,0,56,19.8,54.5,57H1006v9.7c0,29.5,5.2,49.5,29.5,49.5c18.5,0,31-11.8,36.5-31l4.5,0.8
		c-5.8,21.5-18.8,38-54.2,38c-44.5,0-64.5-25.5-64.5-61.8C957.7,307,987.2,288,1022,288z M1032,340v-12.2c0-26.2-2-35-12.2-35
		c-8.8,0-13.5,8.5-13.5,35V340H1032z"/>
	<path class="st1" d="M1167.7,392c-5.2,12.5-15,20-34.5,20c-27.8,0-45.2-19.8-45.2-61.8c0-42.2,17.5-62.2,49.5-62.2
		c15.5,0,24.5,4.5,29,12.2v-73.7h-15.2V222h62.5v183h12.2v4.5h-55.5L1167.7,392z M1167.2,375.5V321c0-13.5-5.2-25.8-16.2-25.8
		c-12.2,0-14.8,14.8-14.8,49.5v13c0,35.2,3,43.5,13.8,43.5C1157.2,401.2,1167.2,394.2,1167.2,375.5z"/>
</g>
</svg>
