<?xml version="1.0" encoding="utf-8"?>
<!-- Generator: Adobe Illustrator 19.1.0, SVG Export Plug-In . SVG Version: 6.00 Build 0)  -->
<svg version="1.1" id="Layer_1" xmlns="http://www.w3.org/2000/svg" xmlns:xlink="http://www.w3.org/1999/xlink" x="0px" y="0px"
	 viewBox="-108 168.8 741.5 225.2" style="enable-background:new -108 168.8 741.5 225.2;" xml:space="preserve">
<style type="text/css">
	.st0{opacity:0.15;}
	.st1{fill:#D3B167;}
</style>
<g class="st0">
	<path class="st1" d="M-108,289.3h3c9.2,30.5,24.5,39.2,45,39.2c18.5,0,25.5-6.8,25.5-16.2c0-11.2-12.2-13.8-31.2-19
		c-20.1-5.5-42.3-13.3-42.3-41c0-25.5,17.5-42.3,44-42.3c11,0,18.5,2.8,25.2,5.8c3,1.2,4,2,7,2c3.8,0,5.5-2,8.8-8.2h2.8v38.2h-3
		c-9-23-21.8-32.5-39.5-32.5c-16.5,0-23.3,6.7-23.3,14.5c0,11.5,15,14.2,31.5,18.8c19.7,5.2,41.7,13.2,41.7,42.7
		c0,28.5-18.5,42.8-46.8,42.8c-12,0-20.5-2.5-30-7.2c-1.5-1-3.8-2-4.8-2c-3.2,0-6.8,2.2-10.8,9.2h-2.8V289.3z"/>
	<path class="st1" d="M4.7,217H-9v-4.5H4.8v-32.2l46.4-11.5v43.8h32.5v4.5H51.2v84.2c0,14.8,2.2,22.8,11,22.8c12,0,19.5-11,21.8-28
		l4.2,0.5c-2.2,19.5-10.5,37.5-41,37.5c-24.8,0-42.5-7.2-42.5-38.2V217z"/>
	<path class="st1" d="M151,260v67h17.8v4.5h-78V327h13.8V217H90.8v-4.5H151v24c4.5-17.8,18.5-26.5,33.5-26.5
		c14.7,0,26.5,7.8,26.5,26.8c0,14.2-7.5,23.8-21,23.8c-16.8,0-24.8-10.5-19.5-28.2h9c5-10.2,0-12.8-5.2-12.8
		C162.2,219.6,151,237.6,151,260z"/>
	<path class="st1" d="M280,210c42,0,62,19.8,62,60.2c0,41-19,63.8-63.5,63.8c-42,0-63.2-22.5-63.2-61.5
		C215.2,231.6,239.8,210,280,210z M294,261c0-27-0.8-46.5-14.8-46.5c-15.2,0-16,19.5-16,47.8v19.5c0,29,0.5,47.8,15.8,47.8
		c14.2,0,15-14.8,15-47.2V261z"/>
	<path class="st1" d="M409.8,212.6v23c4.2-12.5,12.5-25.5,37.2-25.5c23.2,0,38.8,11.5,38.8,41.8v75.2h14v4.5H429v-4.5h10.2v-81.3
		c0-21.2-3-23.8-9.2-23.8c-10.5,0-20.2,15.8-20.2,36v69h10.8v4.5h-71V327h13.8V217h-13.8v-4.5h60.2V212.6z"/>
	<path class="st1" d="M610.2,195.3c0.8-4-0.8-7.8-6-7.8c-3.2,0-10.8,1-10.8,16.5c0,4,0.5,9,1.8,15c9.8,6.5,19,15.2,19,31.8
		c0,28.5-20.5,42.8-51,42.8c-7.2,0-15-1-20.2-2c-8.8,5.5-11,8.2-11,10.5s2.8,3.5,16,3.5h25.5c28.2,0,56.8,6.8,56.8,40.8
		c0,27.8-20,47.8-70.5,47.8c-43.5,0-61.8-10.5-61.8-26.8c0-12.5,10.5-17.5,19.2-20l15,6.8c-1.5,5.5-2,9.8-2,13.8
		c0,10.5,5.2,21.5,32,21.5c26.5,0,40.5-10.8,40.5-26.5c0-12-5.5-16.8-31.8-16.8h-24.2C517,346,509,333.8,509,322.8
		c0-14.2,9-21.2,28.5-33c-19.5-5.5-29-17.2-29-38c0-23.5,16.2-41.8,54-41.8c12.2,0,19.5,1.8,27.8,6.2c-1-4.5-1.5-8.5-1.5-12.2
		c0-20.5,14.2-26.5,24.5-26.5c11.8,0,20.2,6.5,20.2,18.5c0,11.5-7.5,16.5-15.8,16.5c-7.5,0-14-4.5-14.5-13L610.2,195.3z
		 M550.2,259.8c0,23.5,4.2,28.8,11.8,28.8c6.8,0,11-4,11-30v-12.3c0-28-4-31.8-10.8-31.8c-7,0-12,4.5-12,31.8V259.8z"/>
</g>
</svg>
