<?xml version="1.0" encoding="utf-8"?>
<!-- Generator: Adobe Illustrator 19.1.0, SVG Export Plug-In . SVG Version: 6.00 Build 0)  -->
<svg version="1.1" id="Layer_1" xmlns="http://www.w3.org/2000/svg" xmlns:xlink="http://www.w3.org/1999/xlink" x="0px" y="0px"
	 viewBox="-49 198.7 860.5 165.3" style="enable-background:new -49 198.7 860.5 165.3;" xml:space="preserve">
<style type="text/css">
	.st0{opacity:0.15;}
	.st1{fill:#D3B167;}
</style>
<g class="st0">
	<path class="st1" d="M-0.8,296.2v13c0,32,5.8,46.2,25.2,46.2c22.8,0,32.5-19.2,35.2-32.8l4.5,0.5C61,338.7,52.8,364,11,364
		c-38.5,0-60-21.5-60-60.5c0-42,25.5-63.5,66.8-63.5c30.5,0,45.8,13,45.8,31.8c0,15.5-8.2,23.5-20.8,23.5c-13,0-22.2-6.8-22.2-20.8
		c0-2.2,0.2-5.5,1.2-9H30c1.2-3.5,1.8-6.5,1.8-9c0-8.5-5-12-12-12C5.2,244.5-0.8,258.9-0.8,296.2z"/>
	<path class="st1" d="M137.2,239.9c42,0,62,19.8,62,60.3c0,41-19,63.8-63.5,63.8c-42,0-63.2-22.5-63.2-61.5
		C72.5,261.5,97,239.9,137.2,239.9z M151.2,291c0-27-0.8-46.5-14.8-46.5c-15.2,0-16,19.5-16,47.8v19.4c0,29,0.5,47.8,15.8,47.8
		c14.2,0,15-14.8,15-47.2V291z"/>
	<path class="st1" d="M267,242.5v23c4.2-12.5,12.5-25.5,37.2-25.5c23.2,0,38.7,11.5,38.7,41.8v75.3h14v4.5h-70.7v-4.5h10.2v-81.4
		c0-21.2-3-23.8-9.2-23.8c-10.5,0-20.2,15.8-20.2,36v69h10.8v4.5h-71v-4.5h13.8v-110h-13.8v-4.5H267V242.5z"/>
	<path class="st1" d="M371.5,246.9h-13.8v-4.5h13.8v-32.2l46.5-11.5v43.8h32.5v4.5H418v84.3c0,14.8,2.2,22.8,11,22.8
		c12,0,19.5-11,21.8-28l4.2,0.5c-2.2,19.5-10.5,37.5-41,37.5c-24.8,0-42.5-7.2-42.5-38.2V246.9z"/>
	<path class="st1" d="M524.7,302.7v-19.2c0-31.8-2.8-40-12.8-40c-4.5,0-11.8,2-11.8,10c0,2,0.5,4.5,1.5,7.2h6.2
		c1.2,3.2,2,6.5,2,11.2c0,11.8-9.5,19.5-22,19.5c-15.5,0-21.5-8.5-21.5-20.8c0-21,18.2-30.8,52.2-30.8c39.2,0,52.5,11,52.5,47.2
		v50.8c0,10.2,3,13,7.2,13c4.5,0,8.8-4.8,10-25.8l3.8,0.2c-1.2,30-10.5,38.5-32,38.5c-20.2,0-31.5-6.2-34.5-18.5
		c-4,12-11.2,18.5-28.8,18.5s-37-5.2-37-30.2c0-25.2,21.8-31,57.5-31h7.5V302.7z M524.7,330v-23.3H523c-10.5,0-15.5,7.5-15.5,22.8v4
		c0,18,1.8,20.5,6.5,20.5S524.7,346,524.7,330z"/>
	<path class="st1" d="M644.2,296.2v13c0,32,5.8,46.2,25.2,46.2c22.8,0,32.5-19.2,35.2-32.8l4.5,0.5c-3.2,15.5-11.5,40.8-53.2,40.8
		c-38.5,0-60-21.5-60-60.5c0-42,25.5-63.5,66.8-63.5c30.5,0,45.8,13,45.8,31.8c0,15.5-8.2,23.5-20.8,23.5c-13,0-22.2-6.8-22.2-20.8
		c0-2.2,0.2-5.5,1.2-9h8.2c1.2-3.5,1.8-6.5,1.8-9c0-8.5-5-12-12-12C650.2,244.5,644.2,258.9,644.2,296.2z"/>
	<path class="st1" d="M728,246.9h-13.8v-4.5H728v-32.2l46.5-11.5v43.8H807v4.5h-32.5v84.3c0,14.8,2.2,22.8,11,22.8
		c12,0,19.5-11,21.8-28l4.2,0.5c-2.2,19.5-10.5,37.5-41,37.5c-24.8,0-42.5-7.2-42.5-38.2V246.9z"/>
</g>
</svg>
