<?xml version="1.0" encoding="utf-8"?>
<!-- Generator: Adobe Illustrator 19.1.0, SVG Export Plug-In . SVG Version: 6.00 Build 0)  -->
<svg version="1.1" id="Layer_1" xmlns="http://www.w3.org/2000/svg" xmlns:xlink="http://www.w3.org/1999/xlink" x="0px" y="0px"
	 viewBox="204.6 122.3 1270.5 242.3" style="enable-background:new 204.6 122.3 1270.5 242.3;" xml:space="preserve">
<style type="text/css">
	.st0{opacity:0.18;}
	.st1{fill:#D3B167;}
</style>
<g class="st0">
	<path class="st1" d="M268.8,183.5c39.2,0,56,19.8,54.5,57h-70.5v9.8c0,29.5,5.2,49.5,29.5,49.5c18.5,0,31-11.8,36.5-31l4.5,0.8
		c-5.8,21.5-18.8,38-54.2,38c-44.5,0-64.5-25.5-64.5-61.8C204.5,202.5,234,183.5,268.8,183.5z M278.8,235.5v-12.2
		c0-26.2-2-35-12.2-35c-8.8,0-13.5,8.5-13.5,35v12.2H278.8z"/>
	<path class="st1" d="M442.3,190.5h-18V186h37.2v4.5h-13l-32.5,46l40.8,64h13v4.5h-83.5v-4.5h17.8l-27.5-45l-28.5,45h16.5v4.5h-39.2
		v-4.5h16.5l31.8-50l-38-60h-14.5V186h84.5v4.5h-17.6l24.8,40.8L442.3,190.5z"/>
	<path class="st1" d="M532,205.7c5.5-12.5,15-22.2,34.5-22.2c28,0,45.2,19.8,45.2,62.2c0,42.8-17.5,61.8-51.5,61.8
		c-17,0-23.2-4.5-27.8-12.2v64.8h32.2v4.5h-92.3v-4.5H486V190.5h-13.2V186H532V205.7z M532.5,228.7v45.8c0,13.5,5.2,25.8,16.2,25.8
		c12.2,0,14.8-14.8,14.8-49.5v-13c0-35.2-3-43.5-11.5-43.5C541.8,194.3,532.5,207,532.5,228.7z"/>
	<path class="st1" d="M684.8,183.5c39.2,0,56,19.8,54.5,57h-70.5v9.8c0,29.5,5.2,49.5,29.5,49.5c18.5,0,31-11.8,36.5-31l4.5,0.8
		c-5.8,21.5-18.8,38-54.2,38c-44.5,0-64.5-25.5-64.5-61.8C620.5,202.5,650,183.5,684.8,183.5z M694.8,235.5v-12.2
		c0-26.2-2-35-12.2-35c-8.8,0-13.5,8.5-13.5,35v12.2H694.8z"/>
	<path class="st1" d="M808.5,233.5v67h17.8v4.5h-78v-4.5H762v-110h-13.8V186h60.2v24c4.6-17.7,18.6-26.5,33.6-26.5
		c14.8,0,26.5,7.8,26.5,26.8c0,14.2-7.5,23.8-21,23.8c-16.8,0-24.8-10.5-19.5-28.2h9c5-10.2,0-12.8-5.2-12.8
		C819.8,193,808.5,211,808.5,233.5z"/>
	<path class="st1" d="M932.3,186v114.5h14v4.5H872v-4.5h13.8v-110H871V186L932.3,186L932.3,186z M909.8,122.3
		c15.5,0,24.8,7.8,24.8,23c0,13.2-7.2,23.5-25.2,23.5c-20.2,0-25-12.8-25-23.2C884.3,133.3,891,122.3,909.8,122.3z"/>
	<path class="st1" d="M1016.8,183.5c39.2,0,56,19.8,54.5,57h-70.5v9.8c0,29.5,5.2,49.5,29.5,49.5c18.5,0,31-11.8,36.5-31l4.5,0.8
		c-5.8,21.5-18.8,38-54.2,38c-44.5,0-64.5-25.5-64.5-61.8C952.5,202.5,982,183.5,1016.8,183.5z M1026.8,235.5v-12.2
		c0-26.2-2-35-12.2-35c-8.8,0-13.5,8.5-13.5,35v12.2H1026.8z"/>
	<path class="st1" d="M1141,186v23c4.2-12.5,12.5-25.5,37.2-25.5c23.2,0,38.8,11.5,38.8,41.8v75.2h14v4.5h-70.8v-4.5h10.2v-81.2
		c0-21.2-3-23.8-9.2-23.8c-10.5,0-20.2,15.8-20.2,36v69h10.8v4.5h-71v-4.5h13.8v-110h-13.8V186L1141,186L1141,186z"/>
	<path class="st1" d="M1283.8,239.7v13c0,32,5.8,46.2,25.2,46.2c22.8,0,32.5-19.2,35.2-32.8l4.5,0.5c-3.2,15.5-11.5,40.8-53.2,40.8
		c-38.5,0-60-21.5-60-60.5c0-42,25.5-63.5,66.8-63.5c30.5,0,45.8,13,45.8,31.8c0,15.5-8.2,23.5-20.8,23.5c-13,0-22.2-6.8-22.2-20.8
		c0-2.2,0.2-5.5,1.2-9h8.2c1.2-3.5,1.8-6.5,1.8-9c0-8.5-5-12-12-12C1289.8,188,1283.8,202.5,1283.8,239.7z"/>
	<path class="st1" d="M1420.5,183.5c39.2,0,56,19.8,54.5,57h-70.5v9.8c0,29.5,5.2,49.5,29.5,49.5c18.5,0,31-11.8,36.5-31l4.5,0.8
		c-5.8,21.5-18.8,38-54.2,38c-44.5,0-64.5-25.5-64.5-61.8C1356.3,202.5,1385.8,183.5,1420.5,183.5z M1430.5,235.5v-12.2
		c0-26.2-2-35-12.2-35c-8.8,0-13.5,8.5-13.5,35v12.2H1430.5z"/>
</g>
</svg>
